0
SECTION
2
HEADER
9
$INSUNITS
70
4
9
$ACADVER
1
AC1014
9
$HANDSEED
5
FFFF
0
ENDSEC
0
SECTION
2
TABLES
0
TABLE
2
VPORT
5
8
100
AcDbSymbolTable
0
ENDTAB
0
TABLE
2
LTYPE
5
5
100
AcDbSymbolTable
0
LTYPE
5
14
100
AcDbSymbolTableRecord
100
AcDbLinetypeTableRecord
2
BYBLOCK
70
0
0
LTYPE
5
15
100
AcDbSymbolTableRecord
100
AcDbLinetypeTableRecord
2
BYLAYER
70
0
0
ENDTAB
0
TABLE
2
LAYER
5
2
100
AcDbSymbolTable
70
2
0
LAYER
5
50
100
AcDbSymbolTableRecord
100
AcDbLayerTableRecord
2
0
70
0
6
CONTINUOUS
0
ENDTAB
0
TABLE
2
STYLE
5
3
100
AcDbSymbolTable
70
1
0
STYLE
5
11
100
AcDbSymbolTableRecord
100
AcDbTextStyleTableRecord
2
STANDARD
70
0
0
ENDTAB
0
TABLE
2
VIEW
5
6
100
AcDbSymbolTable
70
0
0
ENDTAB
0
TABLE
2
UCS
5
7
100
AcDbSymbolTable
70
0
0
ENDTAB
0
TABLE
2
APPID
5
9
100
AcDbSymbolTable
70
2
0
APPID
5
12
100
AcDbSymbolTableRecord
100
AcDbRegAppTableRecord
2
ACAD
70
0
0
ENDTAB
0
TABLE
2
DIMSTYLE
5
A
100
AcDbSymbolTable
70
1
0
ENDTAB
0
TABLE
2
BLOCK_RECORD
5
1
100
AcDbSymbolTable
70
1
0
BLOCK_RECORD
5
1F
100
AcDbSymbolTableRecord
100
AcDbBlockTableRecord
2
*MODEL_SPACE
0
BLOCK_RECORD
5
1B
100
AcDbSymbolTableRecord
100
AcDbBlockTableRecord
2
*PAPER_SPACE
0
ENDTAB
0
ENDSEC
0
SECTION
2
BLOCKS
0
BLOCK
5
20
100
AcDbEntity
100
AcDbBlockBegin
2
*MODEL_SPACE
0
ENDBLK
5
21
100
AcDbEntity
100
AcDbBlockEnd
0
BLOCK
5
1C
100
AcDbEntity
100
AcDbBlockBegin
2
*PAPER_SPACE
0
ENDBLK
5
1D
100
AcDbEntity
100
AcDbBlockEnd
0
ENDSEC
0
SECTION
2
ENTITIES
0
LWPOLYLINE
5
100
100
AcDbEntity
8
0
100
AcDbPolyline
90
4
70
1
43
0.0
10
17.144200000000001
20
91.775800000000004
10
17.144200000000001
20
77.776600000000002
10
31.145099999999999
20
77.776600000000002
10
31.145099999999999
20
91.775800000000004
0
CIRCLE
5
101
100
AcDbEntity
8
0
100
AcDbCircle
10
139.87099999999998
20
79.2333
30
0
40
1.4999999999999991
210
0
220
0
230
1
0
LWPOLYLINE
5
102
100
AcDbEntity
8
0
100
AcDbPolyline
90
34
70
1
43
0.0
10
110.37100000000002
20
96.683300000000003
10
148.32099999999997
20
96.683300000000003
42
-0.41421356237309503
10
148.82099999999997
20
96.183300000000003
10
148.82099999999997
20
36.03263635625953
42
-0.13166346269556317
10
148.75400192321035
20
35.782617687964361
10
131.38000002402472
20
5.6929596336017161
42
-0.41419172023681955
10
130.69701172402699
20
5.5099577349248889
10
116.83584394787968
20
13.512125240802881
42
0.043646400148347864
10
116.75688014024101
20
13.548946435322769
10
97.793587428959782
20
20.451591761491883
42
0.08749536423470855
10
97.622564859811135
20
20.481750000000002
10
53.219500000000004
20
20.481750000000002
42
0.41421356237309631
10
52.719500000000004
20
19.981750000000002
10
52.719500000000004
20
18.600500000000004
42
-0.41421356237309503
10
52.219500000000004
20
18.1005
10
15.116899999999999
20
18.1005
42
-0.41421356237308982
10
14.616899999999999
20
18.600500000000004
10
14.616900000000001
20
93.802099999999996
42
-0.41421356237306772
10
15.116899999999998
20
94.30210000000001
10
52.21840000000001
20
94.30210000000001
42
0.41421356237305862
10
52.71840000000001
20
94.802099999999996
10
52.71840000000001
20
98.564599999999984
42
-0.414213562373069
10
53.21840000000001
20
99.064600000000013
10
71.2684
20
99.064600000000013
42
0.41421356237305862
10
71.7684
20
99.564599999999999
10
71.7684
20
100.946
42
-0.41421356237308982
10
72.2684
20
101.446
10
90.32089999999998
20
101.446
42
-0.41421356237307422
10
90.820899999999995
20
100.946
10
90.820899999999995
20
99.564600000000013
42
0.4142135623730534
10
91.320899999999995
20
99.064600000000013
10
109.37100000000001
20
99.064600000000013
42
-0.41421356237307422
10
109.87100000000001
20
98.564599999999999
10
109.87100000000001
20
97.183300000000017
42
0.41421356237309503
0
LINE
5
103
100
AcDbEntity
8
0
100
AcDbLine
10
130.92099999999999
20
96.683300000000003
30
0
11
130.92099999999999
21
61.783300000000011
31
0
0
LINE
5
104
100
AcDbEntity
8
0
100
AcDbLine
10
130.92099999999999
20
61.783300000000011
30
0
11
148.82099999999997
21
61.783300000000011
31
0
0
CIRCLE
5
105
100
AcDbEntity
8
0
100
AcDbCircle
10
140.77099999999999
20
53.283300000000004
30
0
40
1.4999999999999996
210
0
220
0
230
1
0
LWPOLYLINE
5
106
100
AcDbEntity
8
0
100
AcDbPolyline
90
4
70
1
43
0.0
10
133.721
20
50.783300000000004
10
133.721
20
55.783300000000004
10
147.82099999999997
20
55.783300000000004
10
147.82099999999997
20
50.783300000000004
0
CIRCLE
5
107
100
AcDbEntity
8
0
100
AcDbCircle
10
24.144650000000002
20
84.776200000000017
30
0
40
1.4999999999999967
210
0
220
0
230
1
0
LWPOLYLINE
5
108
100
AcDbEntity
8
0
100
AcDbPolyline
90
4
70
1
43
0.0
10
31.145099999999999
20
58.726600000000019
10
31.145099999999999
20
72.725800000000021
10
17.144200000000001
20
72.725800000000021
10
17.144200000000001
20
58.726600000000019
0
CIRCLE
5
109
100
AcDbEntity
8
0
100
AcDbCircle
10
24.144650000000002
20
65.72620000000002
30
0
40
1.4999999999999967
210
0
220
0
230
1
0
CIRCLE
5
110
100
AcDbEntity
8
0
100
AcDbCircle
10
24.144650000000002
20
46.676200000000009
30
0
40
1.4999999999999967
210
0
220
0
230
1
0
LWPOLYLINE
5
111
100
AcDbEntity
8
0
100
AcDbPolyline
90
4
70
1
43
0.0
10
17.144200000000001
20
34.625800000000012
10
17.144200000000001
20
20.62660000000001
10
31.145099999999999
20
20.62660000000001
10
31.145099999999999
20
34.625800000000012
0
LWPOLYLINE
5
112
100
AcDbEntity
8
0
100
AcDbPolyline
90
4
70
1
43
0.0
10
31.145099999999999
20
53.675800000000002
10
17.144200000000001
20
53.675800000000002
10
17.144200000000001
20
39.676600000000008
10
31.145099999999999
20
39.676600000000008
0
CIRCLE
5
113
100
AcDbEntity
8
0
100
AcDbCircle
10
24.144650000000002
20
27.626200000000019
30
0
40
1.4999999999999967
210
0
220
0
230
1
0
LWPOLYLINE
5
114
100
AcDbEntity
8
0
100
AcDbPolyline
90
4
70
1
43
0.0
10
36.194299999999998
20
58.726600000000019
10
50.1952
20
58.726600000000019
10
50.1952
20
72.725800000000021
10
36.194299999999998
20
72.725800000000021
0
LWPOLYLINE
5
115
100
AcDbEntity
8
0
100
AcDbPolyline
90
4
70
1
43
0.0
10
50.1952
20
53.675800000000002
10
36.194299999999998
20
53.675800000000002
10
36.194299999999998
20
39.676600000000008
10
50.1952
20
39.676600000000008
0
CIRCLE
5
116
100
AcDbEntity
8
0
100
AcDbCircle
10
43.194749999999999
20
46.676200000000009
30
0
40
1.4999999999999967
210
0
220
0
230
1
0
LWPOLYLINE
5
117
100
AcDbEntity
8
0
100
AcDbPolyline
90
4
70
1
43
0.0
10
36.194299999999998
20
91.775800000000004
10
36.194299999999998
20
77.776600000000002
10
50.1952
20
77.776600000000002
10
50.1952
20
91.775800000000004
0
CIRCLE
5
118
100
AcDbEntity
8
0
100
AcDbCircle
10
43.194749999999999
20
84.776200000000017
30
0
40
1.4999999999999967
210
0
220
0
230
1
0
LWPOLYLINE
5
119
100
AcDbEntity
8
0
100
AcDbPolyline
90
4
70
1
43
0.0
10
50.1952
20
20.62660000000001
10
50.1952
20
34.625800000000012
10
36.194299999999998
20
34.625800000000012
10
36.194299999999998
20
20.62660000000001
0
CIRCLE
5
120
100
AcDbEntity
8
0
100
AcDbCircle
10
43.194749999999999
20
65.72620000000002
30
0
40
1.4999999999999967
210
0
220
0
230
1
0
CIRCLE
5
121
100
AcDbEntity
8
0
100
AcDbCircle
10
43.194749999999999
20
27.626200000000019
30
0
40
1.4999999999999967
210
0
220
0
230
1
0
LWPOLYLINE
5
122
100
AcDbEntity
8
0
100
AcDbPolyline
90
4
70
1
43
0.0
10
55.24430000000001
20
44.43910000000001
10
69.245199999999997
20
44.43910000000001
10
69.245199999999997
20
58.438300000000005
10
55.24430000000001
20
58.438300000000005
0
LWPOLYLINE
5
123
100
AcDbEntity
8
0
100
AcDbPolyline
90
4
70
1
43
0.0
10
69.245199999999997
20
63.489100000000022
10
69.245199999999997
20
77.48830000000001
10
55.24430000000001
20
77.48830000000001
10
55.24430000000001
20
63.489100000000022
0
CIRCLE
5
124
100
AcDbEntity
8
0
100
AcDbCircle
10
62.244749999999996
20
89.53870000000002
30
0
40
1.4999999999999967
210
0
220
0
230
1
0
LWPOLYLINE
5
125
100
AcDbEntity
8
0
100
AcDbPolyline
90
4
70
1
43
0.0
10
69.245199999999997
20
25.389100000000013
10
69.245199999999997
20
39.388300000000015
10
55.24430000000001
20
39.388300000000015
10
55.24430000000001
20
25.389100000000013
0
CIRCLE
5
126
100
AcDbEntity
8
0
100
AcDbCircle
10
62.244749999999996
20
51.438700000000011
30
0
40
1.4999999999999967
210
0
220
0
230
1
0
LWPOLYLINE
5
127
100
AcDbEntity
8
0
100
AcDbPolyline
90
4
70
1
43
0.0
10
55.24430000000001
20
96.538300000000007
10
55.24430000000001
20
82.539100000000019
10
69.245199999999997
20
82.539100000000019
10
69.245199999999997
20
96.538300000000007
0
CIRCLE
5
128
100
AcDbEntity
8
0
100
AcDbCircle
10
62.244749999999996
20
32.388700000000021
30
0
40
1.4999999999999967
210
0
220
0
230
1
0
CIRCLE
5
129
100
AcDbEntity
8
0
100
AcDbCircle
10
62.244749999999996
20
70.488700000000023
30
0
40
1.4999999999999967
210
0
220
0
230
1
0
LWPOLYLINE
5
130
100
AcDbEntity
8
0
100
AcDbPolyline
90
4
70
1
43
0.0
10
74.294300000000007
20
46.820400000000006
10
88.295200000000008
20
46.820400000000006
10
88.295200000000008
20
60.819600000000008
10
74.294300000000007
20
60.819600000000008
0
LWPOLYLINE
5
131
100
AcDbEntity
8
0
100
AcDbPolyline
90
4
70
1
43
0.0
10
88.295200000000008
20
65.870400000000018
10
88.295200000000008
20
79.86960000000002
10
74.294300000000007
20
79.86960000000002
10
74.294300000000007
20
65.870400000000018
0
LWPOLYLINE
5
132
100
AcDbEntity
8
0
100
AcDbPolyline
90
4
70
1
43
0.0
10
88.295200000000008
20
98.919600000000003
10
74.294300000000007
20
98.919600000000003
10
74.294300000000007
20
84.920400000000015
10
88.295200000000008
20
84.920400000000015
0
CIRCLE
5
133
100
AcDbEntity
8
0
100
AcDbCircle
10
81.294749999999993
20
72.870000000000033
30
0
40
1.4999999999999967
210
0
220
0
230
1
0
CIRCLE
5
134
100
AcDbEntity
8
0
100
AcDbCircle
10
81.294749999999993
20
91.920000000000016
30
0
40
1.4999999999999967
210
0
220
0
230
1
0
CIRCLE
5
135
100
AcDbEntity
8
0
100
AcDbCircle
10
81.294749999999993
20
53.820000000000014
30
0
40
1.4999999999999967
210
0
220
0
230
1
0
LWPOLYLINE
5
136
100
AcDbEntity
8
0
100
AcDbPolyline
90
4
70
1
43
0.0
10
74.294300000000007
20
41.769600000000011
10
74.294300000000007
20
27.770400000000013
10
88.295200000000008
20
27.770400000000013
10
88.295200000000008
20
41.769600000000011
0
CIRCLE
5
137
100
AcDbEntity
8
0
100
AcDbCircle
10
81.294749999999993
20
34.770000000000024
30
0
40
1.4999999999999967
210
0
220
0
230
1
0
LWPOLYLINE
5
138
100
AcDbEntity
8
0
100
AcDbPolyline
90
4
70
1
43
0.0
10
114.46082863525909
20
31.971607837310923
10
101.30441359831563
20
36.760547614097369
10
96.516055298264263
20
23.605730039142951
10
109.67247033520775
20
18.816790262356509
0
CIRCLE
5
139
100
AcDbEntity
8
0
100
AcDbCircle
10
105.48826701195837
20
27.788732619202786
30
0
40
1.4999999999999967
210
-0
220
0
230
1
0
LWPOLYLINE
5
140
100
AcDbEntity
8
0
100
AcDbPolyline
90
4
70
1
43
0.0
10
127.46200000000002
20
31.958100000000002
10
120.46240000000004
20
19.834437167340887
10
132.58753507584558
20
12.833987167340894
10
139.58713507584554
20
24.957650000000008
0
CIRCLE
5
141
100
AcDbEntity
8
0
100
AcDbCircle
10
130.0247675379228
20
22.396043583670458
30
0
40
1.4999999999999967
210
-0
220
0
230
1
0
LWPOLYLINE
5
142
100
AcDbEntity
8
0
100
AcDbPolyline
90
4
70
1
43
0.0
10
107.34520000000001
20
96.538300000000007
10
93.344300000000004
20
96.538300000000007
10
93.344300000000004
20
82.539100000000019
10
107.34520000000001
20
82.539100000000019
0
LWPOLYLINE
5
143
100
AcDbEntity
8
0
100
AcDbPolyline
90
4
70
1
43
0.0
10
107.34520000000001
20
77.48830000000001
10
93.344300000000004
20
77.48830000000001
10
93.344300000000004
20
63.489100000000022
10
107.34520000000001
20
63.489100000000022
0
LWPOLYLINE
5
144
100
AcDbEntity
8
0
100
AcDbPolyline
90
4
70
1
43
0.0
10
107.34520000000001
20
58.438300000000005
10
93.344300000000004
20
58.438300000000005
10
93.344300000000004
20
44.43910000000001
10
107.34520000000001
20
44.43910000000001
0
CIRCLE
5
145
100
AcDbEntity
8
0
100
AcDbCircle
10
100.34475
20
51.438700000000011
30
0
40
1.4999999999999967
210
0
220
0
230
1
0
CIRCLE
5
146
100
AcDbEntity
8
0
100
AcDbCircle
10
100.34475
20
70.488700000000023
30
0
40
1.4999999999999967
210
0
220
0
230
1
0
CIRCLE
5
147
100
AcDbEntity
8
0
100
AcDbCircle
10
100.34475
20
89.53870000000002
30
0
40
1.4999999999999967
210
0
220
0
230
1
0
LWPOLYLINE
5
148
100
AcDbEntity
8
0
100
AcDbPolyline
90
4
70
1
43
0.0
10
126.39489999999998
20
94.157100000000014
10
112.39400000000001
20
94.157100000000014
10
112.39400000000001
20
80.157900000000012
10
126.39489999999998
20
80.157900000000012
0
LWPOLYLINE
5
149
100
AcDbEntity
8
0
100
AcDbPolyline
90
4
70
1
43
0.0
10
126.39489999999998
20
75.107100000000017
10
112.39400000000001
20
75.107100000000017
10
112.39400000000001
20
61.107900000000015
10
126.39489999999998
20
61.107900000000015
0
LWPOLYLINE
5
150
100
AcDbEntity
8
0
100
AcDbPolyline
90
4
70
1
43
0.0
10
126.39489999999998
20
56.057100000000005
10
112.39400000000001
20
56.057100000000005
10
112.39400000000001
20
42.057900000000004
10
126.39489999999998
20
42.057900000000004
0
CIRCLE
5
151
100
AcDbEntity
8
0
100
AcDbCircle
10
119.39444999999999
20
49.057500000000012
30
0
40
1.4999999999999967
210
0
220
0
230
1
0
CIRCLE
5
152
100
AcDbEntity
8
0
100
AcDbCircle
10
119.39444999999999
20
68.107500000000016
30
0
40
1.4999999999999967
210
0
220
0
230
1
0
CIRCLE
5
153
100
AcDbEntity
8
0
100
AcDbCircle
10
119.39444999999999
20
87.157500000000013
30
0
40
1.4999999999999967
210
0
220
0
230
1
0
LINE
5
154
100
AcDbEntity
8
0
100
AcDbLine
10
128.92099999999999
20
39.5319
30
0
11
128.92099999999999
21
96.683300000000003
31
0
0
LINE
5
155
100
AcDbEntity
8
0
100
AcDbLine
10
145.41899999999998
20
30.006799999999998
30
0
11
128.92099999999999
21
39.5319
31
0
0
CIRCLE
5
156
100
AcDbEntity
8
0
100
AcDbCircle
10
32.407400000000003
20
81.776200000000017
30
0
40
0.99999999999999634
210
0
220
0
230
1
0
CIRCLE
5
157
100
AcDbEntity
8
0
100
AcDbCircle
10
71.769750000000002
20
62.154350000000008
30
0
40
2.0000000000000009
210
0
220
0
230
1
0
CIRCLE
5
158
100
AcDbEntity
8
0
100
AcDbCircle
10
33.669700000000006
20
75.251200000000011
30
0
40
2.0000000000000009
210
0
220
0
230
1
0
CIRCLE
5
159
100
AcDbEntity
8
0
100
AcDbCircle
10
33.669700000000006
20
37.151200000000003
30
0
40
2.0000000000000009
210
0
220
0
230
1
0
CIRCLE
5
160
100
AcDbEntity
8
0
100
AcDbCircle
10
118.01442474261674
20
25.645233816752082
30
0
40
1.9999999999999987
210
0
220
0
230
1
0
CIRCLE
5
161
100
AcDbEntity
8
0
100
AcDbCircle
10
109.86959999999999
20
78.823100000000011
30
0
40
1.9999999999999964
210
0
220
0
230
1
0
CIRCLE
5
162
100
AcDbEntity
8
0
100
AcDbCircle
10
32.407400000000003
20
62.72620000000002
30
0
40
0.99999999999999867
210
0
220
0
230
1
0
CIRCLE
5
163
100
AcDbEntity
8
0
100
AcDbCircle
10
32.407399999999996
20
43.676200000000009
30
0
40
1.0000000000000004
210
0
220
0
230
1
0
CIRCLE
5
164
100
AcDbEntity
8
0
100
AcDbCircle
10
32.407399999999996
20
24.626200000000011
30
0
40
1.0000000000000004
210
0
220
0
230
1
0
CIRCLE
5
165
100
AcDbEntity
8
0
100
AcDbCircle
10
51.457499999999996
20
81.776200000000017
30
0
40
0.99999999999999634
210
0
220
0
230
1
0
CIRCLE
5
166
100
AcDbEntity
8
0
100
AcDbCircle
10
70.507500000000007
20
86.538700000000006
30
0
40
0.99999999999999634
210
0
220
0
230
1
0
CIRCLE
5
167
100
AcDbEntity
8
0
100
AcDbCircle
10
89.557500000000005
20
88.920000000000016
30
0
40
0.99999999999999634
210
0
220
0
230
1
0
CIRCLE
5
168
100
AcDbEntity
8
0
100
AcDbCircle
10
108.60750000000002
20
86.538700000000006
30
0
40
0.99999999999999634
210
0
220
0
230
1
0
CIRCLE
5
169
100
AcDbEntity
8
0
100
AcDbCircle
10
111.1318
20
86.538700000000006
30
0
40
0.99999999999999634
210
0
220
0
230
1
0
CIRCLE
5
170
100
AcDbEntity
8
0
100
AcDbCircle
10
108.60750000000002
20
67.488700000000023
30
0
40
0.99999999999999634
210
0
220
0
230
1
0
CIRCLE
5
171
100
AcDbEntity
8
0
100
AcDbCircle
10
111.1318
20
67.488700000000023
30
0
40
0.99999999999999634
210
0
220
0
230
1
0
CIRCLE
5
172
100
AcDbEntity
8
0
100
AcDbCircle
10
108.60750000000002
20
48.438700000000011
30
0
40
0.99999999999999634
210
0
220
0
230
1
0
CIRCLE
5
173
100
AcDbEntity
8
0
100
AcDbCircle
10
111.1318
20
48.438700000000011
30
0
40
0.99999999999999634
210
0
220
0
230
1
0
CIRCLE
5
174
100
AcDbEntity
8
0
100
AcDbCircle
10
89.557500000000005
20
69.870000000000019
30
0
40
0.99999999999999634
210
0
220
0
230
1
0
CIRCLE
5
175
100
AcDbEntity
8
0
100
AcDbCircle
10
89.557500000000005
20
50.820000000000007
30
0
40
0.99999999999999634
210
0
220
0
230
1
0
CIRCLE
5
176
100
AcDbEntity
8
0
100
AcDbCircle
10
70.507499999999993
20
67.488700000000023
30
0
40
0.99999999999999634
210
0
220
0
230
1
0
CIRCLE
5
177
100
AcDbEntity
8
0
100
AcDbCircle
10
89.557500000000005
20
31.770000000000014
30
0
40
0.99999999999999634
210
0
220
0
230
1
0
CIRCLE
5
178
100
AcDbEntity
8
0
100
AcDbCircle
10
70.507499999999993
20
48.438700000000011
30
0
40
0.99999999999999634
210
0
220
0
230
1
0
CIRCLE
5
179
100
AcDbEntity
8
0
100
AcDbCircle
10
70.507499999999993
20
29.388700000000014
30
0
40
0.99999999999999634
210
0
220
0
230
1
0
CIRCLE
5
180
100
AcDbEntity
8
0
100
AcDbCircle
10
51.457499999999996
20
62.72620000000002
30
0
40
0.99999999999999634
210
0
220
0
230
1
0
CIRCLE
5
181
100
AcDbEntity
8
0
100
AcDbCircle
10
51.457499999999996
20
43.676200000000009
30
0
40
0.99999999999999634
210
0
220
0
230
1
0
CIRCLE
5
182
100
AcDbEntity
8
0
100
AcDbCircle
10
51.457499999999996
20
24.626200000000011
30
0
40
0.99999999999999634
210
0
220
0
230
1
0
CIRCLE
5
183
100
AcDbEntity
8
0
100
AcDbCircle
10
96.697686394667741
20
27.795708989515635
30
0
40
0.999999999999996
210
0
220
0
230
1
0
CIRCLE
5
184
100
AcDbEntity
8
0
100
AcDbCircle
10
121.42335558079735
20
23.897969477389935
30
0
40
0.999999999999996
210
0
220
0
230
1
0
ENDSEC
0
SECTION
2
OBJECTS
0
DICTIONARY
5
C
100
AcDbDictionary
3
ACAD_GROUP
350
D
3
ACAD_MLINESTYLE
350
17
0
DICTIONARY
5
D
100
AcDbDictionary
0
DICTIONARY
5
1A
330
C
100
AcDbDictionary
0
DICTIONARY
5
17
100
AcDbDictionary
0
ENDSEC
0
EOF
