0
SECTION
2
HEADER
9
$INSUNITS
70
4
9
$ACADVER
1
AC1014
9
$HANDSEED
5
FFFF
0
ENDSEC
0
SECTION
2
TABLES
0
TABLE
2
VPORT
5
8
100
AcDbSymbolTable
0
ENDTAB
0
TABLE
2
LTYPE
5
5
100
AcDbSymbolTable
0
LTYPE
5
14
100
AcDbSymbolTableRecord
100
AcDbLinetypeTableRecord
2
BYBLOCK
70
0
0
LTYPE
5
15
100
AcDbSymbolTableRecord
100
AcDbLinetypeTableRecord
2
BYLAYER
70
0
0
ENDTAB
0
TABLE
2
LAYER
5
2
100
AcDbSymbolTable
70
2
0
LAYER
5
50
100
AcDbSymbolTableRecord
100
AcDbLayerTableRecord
2
0
70
0
6
CONTINUOUS
0
ENDTAB
0
TABLE
2
STYLE
5
3
100
AcDbSymbolTable
70
1
0
STYLE
5
11
100
AcDbSymbolTableRecord
100
AcDbTextStyleTableRecord
2
STANDARD
70
0
0
ENDTAB
0
TABLE
2
VIEW
5
6
100
AcDbSymbolTable
70
0
0
ENDTAB
0
TABLE
2
UCS
5
7
100
AcDbSymbolTable
70
0
0
ENDTAB
0
TABLE
2
APPID
5
9
100
AcDbSymbolTable
70
2
0
APPID
5
12
100
AcDbSymbolTableRecord
100
AcDbRegAppTableRecord
2
ACAD
70
0
0
ENDTAB
0
TABLE
2
DIMSTYLE
5
A
100
AcDbSymbolTable
70
1
0
ENDTAB
0
TABLE
2
BLOCK_RECORD
5
1
100
AcDbSymbolTable
70
1
0
BLOCK_RECORD
5
1F
100
AcDbSymbolTableRecord
100
AcDbBlockTableRecord
2
*MODEL_SPACE
0
BLOCK_RECORD
5
1B
100
AcDbSymbolTableRecord
100
AcDbBlockTableRecord
2
*PAPER_SPACE
0
ENDTAB
0
ENDSEC
0
SECTION
2
BLOCKS
0
BLOCK
5
20
100
AcDbEntity
100
AcDbBlockBegin
2
*MODEL_SPACE
0
ENDBLK
5
21
100
AcDbEntity
100
AcDbBlockEnd
0
BLOCK
5
1C
100
AcDbEntity
100
AcDbBlockBegin
2
*PAPER_SPACE
0
ENDBLK
5
1D
100
AcDbEntity
100
AcDbBlockEnd
0
ENDSEC
0
SECTION
2
ENTITIES
0
LWPOLYLINE
5
100
100
AcDbEntity
8
0
100
AcDbPolyline
90
16
70
1
43
0.0
10
52.600336551558215
20
14.207784400146135
10
142.31279139652193
20
30.016358111131876
42
0.41421356237309104
10
144.74665155641918
20
33.49145878910727
10
128.56924547527723
20
125.29700931480349
42
0.36397023426620323
10
125.61509432956485
20
127.77638903769426
10
-125.60106912508124
20
127.79017549707895
42
0.36397023426620251
10
-128.55549238411785
20
125.31112003007969
10
-144.74297473768439
20
33.507345652915333
42
0.41421356237309276
10
-142.30949601164849
20
30.031977860877923
10
-52.59877682040127
20
14.213557608700363
42
-0.053601199316110737
10
-51.982673320790568
20
14.035304692336243
10
-18.263431016438183
20
0.22476953388711196
42
0.097490296709250815
10
-17.126382983826495
20
0.00093987655949590021
10
17.12638298382652
20
-0.00093987655958471805
42
0.097490296709250232
10
18.263455576626964
20
0.22276497959595076
10
51.984213491020853
20
14.029599106984163
42
-0.053601199316128771
0
LWPOLYLINE
5
101
100
AcDbEntity
8
0
100
AcDbPolyline
90
4
70
1
43
0.0
10
65.841076840460474
20
94.645474491254191
10
79.6276960172043
20
97.076427424866864
10
77.196760448409464
20
110.86294812083534
10
63.410141271665722
20
108.4319951872227
0
LWPOLYLINE
5
102
100
AcDbEntity
8
0
100
AcDbPolyline
90
4
70
1
43
0.0
10
53.28299367402758
20
56.161325538406679
10
67.069612850771264
20
58.592278472019359
10
64.63865991715862
20
72.378897648763171
10
50.852040740414836
20
69.947944715150498
0
LWPOLYLINE
5
103
100
AcDbEntity
8
0
100
AcDbPolyline
90
4
70
1
43
0.0
10
-53.270175048116784
20
56.161325538406679
10
-67.056794224860639
20
58.592278472019323
10
-64.625841291247923
20
72.378897648763143
10
-50.839222114504139
20
69.94794471515047
0
LWPOLYLINE
5
104
100
AcDbEntity
8
0
100
AcDbPolyline
90
4
70
1
43
0.0
10
-67.933839075802922
20
53.618309953880576
10
-54.147219899059209
20
51.187357020267932
10
-56.578190197489562
20
37.400639362748826
10
-70.364809374233346
20
39.831592296361471
0
LWPOLYLINE
5
105
100
AcDbEntity
8
0
100
AcDbPolyline
90
4
70
1
43
0.0
10
-77.183941822498753
20
110.8629481208353
10
-63.397322645754969
20
108.43199518722265
10
-65.828258214549834
20
94.645474491254163
10
-79.614877391293618
20
97.076427424866836
0
LWPOLYLINE
5
106
100
AcDbEntity
8
0
100
AcDbPolyline
90
4
70
1
43
0.0
10
-66.705320430309953
20
89.67140749234008
10
-69.136255999104819
20
75.884886796371632
10
-82.922875175848688
20
78.315839729984233
10
-80.491939607053752
20
92.102360425952767
0
LWPOLYLINE
5
107
100
AcDbEntity
8
0
100
AcDbPolyline
90
4
70
1
43
0.0
10
66.71813905622065
20
89.671407492340123
10
69.149074625015587
20
75.884886796371632
10
82.935693801759371
20
78.315839729984305
10
80.504758232964463
20
92.10236042595281
0
LWPOLYLINE
5
108
100
AcDbEntity
8
0
100
AcDbPolyline
90
4
70
1
43
0.0
10
-46.278762001843603
20
66.725777161960139
10
-32.492142825099819
20
64.294824228347494
10
-34.923078393894684
20
50.508303532378989
10
-48.709697570638539
20
52.939256465991669
0
LWPOLYLINE
5
109
100
AcDbEntity
8
0
100
AcDbPolyline
90
4
70
1
43
0.0
10
56.59100882340033
20
37.400639362748848
10
70.377628000144071
20
39.831592296361507
10
67.94665770171369
20
53.618309953880576
10
54.160038524969863
20
51.187357020267932
0
LWPOLYLINE
5
110
100
AcDbEntity
8
0
100
AcDbPolyline
90
4
70
1
43
0.0
10
102.52328094278069
20
76.933690590818671
10
100.09210226653705
20
90.721590017641375
10
86.30548308979327
20
88.290637084028731
10
88.736661766036832
20
74.502737657205984
0
LWPOLYLINE
5
111
100
AcDbEntity
8
0
100
AcDbPolyline
90
4
70
1
43
0.0
10
99.215283158225688
20
95.694278285701202
10
96.784104481982013
20
109.48217771252395
10
82.9974853052382
20
107.0512247789113
10
85.428663981481861
20
93.263325352088557
0
LWPOLYLINE
5
112
100
AcDbEntity
8
0
100
AcDbPolyline
90
4
70
1
43
0.0
10
-117.96305222719754
20
99.002276070256201
10
-115.5318735509539
20
112.79017549707891
10
-101.7451558934348
20
110.35920519864848
10
-104.17633456967843
20
96.571305771825735
0
LWPOLYLINE
5
113
100
AcDbEntity
8
0
100
AcDbPolyline
90
4
70
1
43
0.0
10
89.613480874348269
20
69.530049389146171
10
92.044694280227461
20
55.741953000772853
10
105.8313134569712
20
58.172905934385497
10
103.40010005109205
20
71.961002322758816
0
LWPOLYLINE
5
114
100
AcDbEntity
8
0
100
AcDbPolyline
90
4
70
1
43
0.0
10
107.49715098014404
20
77.810718076943289
10
121.28386863766322
20
80.241688375373712
10
118.85268996141959
20
94.02958780219646
10
105.06597230390044
20
91.598617503765951
0
LWPOLYLINE
5
115
100
AcDbEntity
8
0
100
AcDbPolyline
90
4
70
1
43
0.0
10
-47.53122432994914
20
88.70853241003303
10
-49.962177263561784
20
74.921913233289274
10
-63.748796440305568
20
77.35286616690189
10
-61.317843506692938
20
91.139485343645703
0
LWPOLYLINE
5
116
100
AcDbEntity
8
0
100
AcDbPolyline
90
4
70
1
43
0.0
10
-85.41584535557115
20
93.263325352088515
10
-99.202464532315005
20
95.694278285701159
10
-96.771285856071373
20
109.48217771252391
10
-82.984666679327518
20
107.05122477891126
0
LWPOLYLINE
5
117
100
AcDbEntity
8
0
100
AcDbPolyline
90
4
70
1
43
0.0
10
101.75797451934548
20
110.35920519864857
10
104.18915319558914
20
96.57130577182582
10
117.97587085310822
20
99.002276070256272
10
115.54469217686459
20
112.79017549707899
0
LWPOLYLINE
5
118
100
AcDbEntity
8
0
100
AcDbPolyline
90
4
70
1
43
0.0
10
87.120736437256724
20
54.581283516962955
10
73.334117260512969
20
52.150330583350311
10
75.765104923761143
20
38.363514445055884
10
89.551724100504885
20
40.794467378668564
0
LWPOLYLINE
5
119
100
AcDbEntity
8
0
100
AcDbPolyline
90
4
70
1
43
0.0
10
110.80518349433474
20
59.049933420510072
10
124.59190115185378
20
61.480903718940532
10
122.16068774597461
20
75.269000107313843
10
108.37397008845555
20
72.838029808883419
0
LWPOLYLINE
5
120
100
AcDbEntity
8
0
100
AcDbPolyline
90
4
70
1
43
0.0
10
-25.876147255989839
20
101.81599961811261
10
-28.307082824784686
20
88.029478922144165
10
-42.09370200152847
20
90.460431855756767
10
-39.662766432733619
20
104.2469525517253
0
LWPOLYLINE
5
121
100
AcDbEntity
8
0
100
AcDbPolyline
90
4
70
1
43
0.0
10
-102.51046231687
20
76.9336905908186
10
-100.07928364062637
20
90.721590017641319
10
-86.292664463882588
20
88.290637084028674
10
-88.723843140126149
20
74.502737657205955
0
LWPOLYLINE
5
122
100
AcDbEntity
8
0
100
AcDbPolyline
90
4
70
1
43
0.0
10
114.1131812788897
20
40.289345725627541
10
127.89989893640887
20
42.720316024057965
10
125.4686681657119
20
56.508510893206569
10
111.68195050819277
20
54.077540594776146
0
LWPOLYLINE
5
123
100
AcDbEntity
8
0
100
AcDbPolyline
90
4
70
1
43
0.0
10
-49.206355565478788
20
31.870721840010621
10
-37.081646533388195
20
24.871555142671617
10
-30.080852049191051
20
36.996281780003898
10
-42.205972369200708
20
43.995419455838665
0
LWPOLYLINE
5
124
100
AcDbEntity
8
0
100
AcDbPolyline
90
4
70
1
43
0.0
10
-15.551570656410973
20
15.000939876559549
10
-26.276757958744383
20
24.000472224957736
10
-17.277793181625043
20
34.724744178809246
10
-6.5535906870446325
20
25.725385478588709
0
LWPOLYLINE
5
125
100
AcDbEntity
8
0
100
AcDbPolyline
90
4
70
1
43
0.0
10
-27.931369905295682
20
61.072703061479174
10
-30.362322838908327
20
47.286083884735355
10
-16.575999104490364
20
44.855183045575977
10
-14.14504617087772
20
58.641802222319832
0
LWPOLYLINE
5
126
100
AcDbEntity
8
0
100
AcDbPolyline
90
4
70
1
43
0.0
10
-27.054325054353328
20
66.046671579617922
10
-13.268001319935365
20
63.615770740458579
10
-10.837048386322721
20
77.402389917202356
10
-24.623372120740612
20
79.833290756361748
0
LWPOLYLINE
5
127
100
AcDbEntity
8
0
100
AcDbPolyline
90
4
70
1
43
0.0
10
46.2915806277543
20
66.725777161960167
10
32.504961451010516
20
64.294824228347494
10
34.935897019805452
20
50.508303532379024
10
48.722516196549194
20
52.939256465991669
0
LWPOLYLINE
5
128
100
AcDbEntity
8
0
100
AcDbPolyline
90
4
70
1
43
0.0
10
-118.8398713355089
20
94.029587802196374
10
-105.0531536779898
20
91.598617503765922
10
-107.48433235423343
20
77.810718076943203
10
-121.27105001175254
20
80.241688375373627
0
LWPOLYLINE
5
129
100
AcDbEntity
8
0
100
AcDbPolyline
90
4
70
1
43
0.0
10
-92.908642668174792
20
50.769560175038855
10
-95.339873438871763
20
36.981365305890215
10
-109.12649261561555
20
39.412318239502881
10
-106.69526184491858
20
53.200513108651499
0
LWPOLYLINE
5
130
100
AcDbEntity
8
0
100
AcDbPolyline
90
4
70
1
43
0.0
10
-125.45584953980119
20
56.508510893206498
10
-111.66913188228209
20
54.077540594776075
10
-114.10036265297899
20
40.28934572562747
10
-127.88708031049809
20
42.720316024057894
0
LWPOLYLINE
5
131
100
AcDbEntity
8
0
100
AcDbPolyline
90
4
70
1
43
0.0
10
-83.799937391608822
20
73.341772731070165
10
-70.013318214864967
20
70.910819797457549
10
-72.444253783659903
20
57.124299101489022
10
-86.230872960403687
20
59.555252035101667
0
LWPOLYLINE
5
132
100
AcDbEntity
8
0
100
AcDbPolyline
90
4
70
1
43
0.0
10
-110.79236486842397
20
59.049933420510037
10
-124.57908252594309
20
61.480903718940461
10
-122.14786912006397
20
75.269000107313786
10
-108.36115146254487
20
72.838029808883363
0
LWPOLYLINE
5
133
100
AcDbEntity
8
0
100
AcDbPolyline
90
4
70
1
43
0.0
10
-31.615080609339685
20
69.268891227261548
10
-45.401699786083469
20
71.699844160874193
10
-42.970764217288604
20
85.486364856842698
10
-29.18414504054482
20
83.055411923230082
0
LWPOLYLINE
5
134
100
AcDbEntity
8
0
100
AcDbPolyline
90
4
70
1
43
0.0
10
42.106520627439167
20
90.460431855756809
10
39.675585058644302
20
104.2469525517253
10
25.888965881900514
20
101.81599961811261
10
28.319901450695379
20
88.029478922144165
0
LWPOLYLINE
5
135
100
AcDbEntity
8
0
100
AcDbPolyline
90
4
70
1
43
0.0
10
-44.223226545394155
20
107.46912010491563
10
-46.6541794790068
20
93.682500928171805
10
-60.440798655750584
20
96.11345386178445
10
-58.009845722137939
20
109.90007303852823
0
LWPOLYLINE
5
136
100
AcDbEntity
8
0
100
AcDbPolyline
90
4
70
1
43
0.0
10
-21.315374336185631
20
98.593878451244308
10
-23.746327269798257
20
84.807259274500495
10
-9.9600035353803662
20
82.376358435341146
10
-7.5290506017677394
20
96.162977612084973
0
LWPOLYLINE
5
137
100
AcDbEntity
8
0
100
AcDbPolyline
90
4
70
1
43
0.0
10
-75.752286297850446
20
38.36351444505587
10
-89.53890547459423
20
40.794467378668493
10
-87.107917811346027
20
54.58128351696292
10
-73.321298634602243
20
52.150330583350275
0
LWPOLYLINE
5
138
100
AcDbEntity
8
0
100
AcDbPolyline
90
4
70
1
43
0.0
10
44.236045171304838
20
107.46912010491567
10
46.666998104917482
20
93.682500928171848
10
60.453617281661266
20
96.113453861784492
10
58.022664348048579
20
109.90007303852828
0
LWPOLYLINE
5
139
100
AcDbEntity
8
0
100
AcDbPolyline
90
4
70
1
43
0.0
10
6.5664093129553436
20
25.725385478588709
10
15.564389282321702
20
15.000939876559549
10
26.289576584655077
20
24.000472224957736
10
17.290611807535807
20
34.724744178809246
0
LWPOLYLINE
5
140
100
AcDbEntity
8
0
100
AcDbPolyline
90
4
70
1
43
0.0
10
92.921461294085489
20
50.769560175038926
10
95.35269206478246
20
36.981365305890264
10
109.13931124152624
20
39.41231823950293
10
106.7080804708293
20
53.20051310865157
0
LWPOLYLINE
5
141
100
AcDbEntity
8
0
100
AcDbPolyline
90
4
70
1
43
0.0
10
31.627899235250378
20
69.268891227261548
10
45.414518411994166
20
71.699844160874193
10
42.983582843199301
20
85.486364856842727
10
29.196963666455513
20
83.055411923230082
0
LWPOLYLINE
5
142
100
AcDbEntity
8
0
100
AcDbPolyline
90
4
70
1
43
0.0
10
72.457072409570543
20
57.124299101489058
10
86.243691586314398
20
59.555252035101738
10
83.812756017519504
20
73.341772731070236
10
70.026136840775678
20
70.910819797457592
0
LWPOLYLINE
5
143
100
AcDbEntity
8
0
100
AcDbPolyline
90
4
70
1
43
0.0
10
23.759145895708951
20
84.807259274500495
10
9.9728221612910772
20
82.376358435341146
10
7.5418692276784149
20
96.162977612084973
10
21.328192962096306
20
98.593878451244308
0
LWPOLYLINE
5
144
100
AcDbEntity
8
0
100
AcDbPolyline
90
4
70
1
43
0.0
10
27.067143680264021
20
66.046671579617964
10
13.28081994584613
20
63.615770740458579
10
10.849867012233414
20
77.402389917202356
10
24.636190746651305
20
79.833290756361748
0
LWPOLYLINE
5
145
100
AcDbEntity
8
0
100
AcDbPolyline
90
4
70
1
43
0.0
10
27.944188531206375
20
61.07270306147921
10
30.37514146481902
20
47.286083884735355
10
16.588817730401129
20
44.855183045576013
10
14.157864796788413
20
58.641802222319832
0
LWPOLYLINE
5
146
100
AcDbEntity
8
0
100
AcDbPolyline
90
4
70
1
43
0.0
10
47.544042955859837
20
88.708532410033058
10
49.974995889472439
20
74.921913233289274
10
63.761615066216265
20
77.352866166901919
10
61.330662132603578
20
91.139485343645745
0
LWPOLYLINE
5
147
100
AcDbEntity
8
0
100
AcDbPolyline
90
4
70
1
43
0.0
10
42.218790995111405
20
43.995419455838665
10
49.219174191389484
20
31.870721840010638
10
37.094465159298963
20
24.871555142671635
10
30.093670675101745
20
36.996281780003898
0
LWPOLYLINE
5
148
100
AcDbEntity
8
0
100
AcDbPolyline
90
4
70
1
43
0.0
10
-92.031875654316707
20
55.741953000772817
10
-105.81849483106056
20
58.172905934385426
10
-103.38728142518137
20
71.961002322758745
10
-89.600662248437587
20
69.530049389146143
0
CIRCLE
5
149
100
AcDbEntity
8
0
100
AcDbCircle
10
-138.28407602102712
20
35.44026125281146
30
0
40
1.5999999999999992
210
0
220
0
230
1
0
CIRCLE
5
150
100
AcDbEntity
8
0
100
AcDbCircle
10
-90.587124162187379
20
25.989061249444845
30
0
40
1.6000000000000001
210
0
220
0
230
1
0
CIRCLE
5
151
100
AcDbEntity
8
0
100
AcDbCircle
10
-34.777071059165522
20
12.391458796540089
30
0
40
1.6000000000000014
210
0
220
0
230
1
0
CIRCLE
5
152
100
AcDbEntity
8
0
100
AcDbCircle
10
-123.23577779229824
20
121.97133105370281
30
0
40
1.6000000000000016
210
0
220
0
230
1
0
CIRCLE
5
153
100
AcDbEntity
8
0
100
AcDbCircle
10
-61.431980105699481
20
122.79017550452951
30
0
40
1.5999999999999952
210
0
220
0
230
1
0
CIRCLE
5
154
100
AcDbEntity
8
0
100
AcDbCircle
10
123.2491643478057
20
121.95780423840154
30
0
40
1.6000000000000016
210
0
220
0
230
1
0
CIRCLE
5
155
100
AcDbEntity
8
0
100
AcDbCircle
10
61.44545690799216
20
122.78343212953571
30
0
40
1.5999999999999952
210
0
220
0
230
1
0
CIRCLE
5
156
100
AcDbEntity
8
0
100
AcDbCircle
10
138.28796503111681
20
35.425083291495341
30
0
40
1.5999999999999992
210
0
220
0
230
1
0
CIRCLE
5
157
100
AcDbEntity
8
0
100
AcDbCircle
10
90.589976117208707
20
25.979118454761245
30
0
40
1.6000000000000001
210
0
220
0
230
1
0
CIRCLE
5
158
100
AcDbEntity
8
0
100
AcDbCircle
10
34.778430908219306
20
12.387641669132101
30
0
40
1.6000000000000014
210
0
220
0
230
1
0
ENDSEC
0
SECTION
2
OBJECTS
0
DICTIONARY
5
C
100
AcDbDictionary
3
ACAD_GROUP
350
D
3
ACAD_MLINESTYLE
350
17
0
DICTIONARY
5
D
100
AcDbDictionary
0
DICTIONARY
5
1A
330
C
100
AcDbDictionary
0
DICTIONARY
5
17
100
AcDbDictionary
0
ENDSEC
0
EOF
