0
SECTION
2
HEADER
9
$INSUNITS
70
4
9
$ACADVER
1
AC1014
9
$HANDSEED
5
FFFF
0
ENDSEC
0
SECTION
2
TABLES
0
TABLE
2
VPORT
5
8
100
AcDbSymbolTable
0
ENDTAB
0
TABLE
2
LTYPE
5
5
100
AcDbSymbolTable
0
LTYPE
5
14
100
AcDbSymbolTableRecord
100
AcDbLinetypeTableRecord
2
BYBLOCK
70
0
0
LTYPE
5
15
100
AcDbSymbolTableRecord
100
AcDbLinetypeTableRecord
2
BYLAYER
70
0
0
ENDTAB
0
TABLE
2
LAYER
5
2
100
AcDbSymbolTable
70
2
0
LAYER
5
50
100
AcDbSymbolTableRecord
100
AcDbLayerTableRecord
2
0
70
0
6
CONTINUOUS
0
ENDTAB
0
TABLE
2
STYLE
5
3
100
AcDbSymbolTable
70
1
0
STYLE
5
11
100
AcDbSymbolTableRecord
100
AcDbTextStyleTableRecord
2
STANDARD
70
0
0
ENDTAB
0
TABLE
2
VIEW
5
6
100
AcDbSymbolTable
70
0
0
ENDTAB
0
TABLE
2
UCS
5
7
100
AcDbSymbolTable
70
0
0
ENDTAB
0
TABLE
2
APPID
5
9
100
AcDbSymbolTable
70
2
0
APPID
5
12
100
AcDbSymbolTableRecord
100
AcDbRegAppTableRecord
2
ACAD
70
0
0
ENDTAB
0
TABLE
2
DIMSTYLE
5
A
100
AcDbSymbolTable
70
1
0
ENDTAB
0
TABLE
2
BLOCK_RECORD
5
1
100
AcDbSymbolTable
70
1
0
BLOCK_RECORD
5
1F
100
AcDbSymbolTableRecord
100
AcDbBlockTableRecord
2
*MODEL_SPACE
0
BLOCK_RECORD
5
1B
100
AcDbSymbolTableRecord
100
AcDbBlockTableRecord
2
*PAPER_SPACE
0
ENDTAB
0
ENDSEC
0
SECTION
2
BLOCKS
0
BLOCK
5
20
100
AcDbEntity
100
AcDbBlockBegin
2
*MODEL_SPACE
0
ENDBLK
5
21
100
AcDbEntity
100
AcDbBlockEnd
0
BLOCK
5
1C
100
AcDbEntity
100
AcDbBlockBegin
2
*PAPER_SPACE
0
ENDBLK
5
1D
100
AcDbEntity
100
AcDbBlockEnd
0
ENDSEC
0
SECTION
2
ENTITIES
0
LINE
5
100
100
AcDbEntity
8
0
100
AcDbLine
10
-140.51727206010963
20
38.853433242592637
30
0
11
-60.473232101226827
21
24.748567781026072
31
0
0
LINE
5
101
100
AcDbEntity
8
0
100
AcDbLine
10
-153.08576779042048
20
30.914106143956754
30
0
11
-63.37331294545676
21
15.105532432971014
31
0
0
LINE
5
102
100
AcDbEntity
8
0
100
AcDbLine
10
-23.138522636651903
20
128.68656708519862
30
0
11
-136.38807072346341
21
128.67413707051912
31
0
0
SPLINE
5
103
100
AcDbEntity
8
0
100
AcDbSpline
70
0
71
3
72
14
73
10
74
0
42
0.000000001
43
0.0000000001
44
0.0000000001
40
23
40
23
40
23
40
23
40
24
40
24
40
24
40
25
40
25
40
25
40
26
40
26
40
26
40
26
10
-74.982185793468631
20
123.46813330436804
30
0
10
-75.019048315160802
20
123.44675218051272
30
0
10
-75.059506655265707
20
123.43118465528875
30
0
10
-75.105175702292044
20
123.43118465528875
30
0
10
-75.243237903863431
20
123.43118465528875
30
0
10
-75.355181975287266
20
123.54310719486578
30
0
10
-75.355181975287266
20
123.68116939643716
30
0
10
-75.355181975287266
20
123.81925312985533
30
0
10
-75.243237903863431
20
123.93117566943239
30
0
10
-75.105175702292044
20
123.93117566943239
30
0
0
LINE
5
104
100
AcDbEntity
8
0
100
AcDbLine
10
-127.15687725869812
20
118.67515022013703
30
0
11
-17.26598827970588
21
118.68701342561478
31
0
0
SPLINE
5
105
100
AcDbEntity
8
0
100
AcDbSpline
70
0
71
3
72
13
73
9
74
0
42
0.000000001
43
0.0000000001
44
0.0000000001
40
15
40
15
40
15
40
15
40
16
40
16
40
16
40
17
40
17
40
18
40
18
40
18
40
18
10
-70.652066809904881
20
121.39420735409442
30
0
10
-70.577523556342797
20
121.35092834206098
30
0
10
-70.525050445733086
20
121.27356441657031
30
0
10
-70.525050445733086
20
121.18117126202527
30
0
10
-70.525050445733086
20
121.0431090604539
30
0
10
-70.636994517156921
20
120.93116498903007
30
0
10
-70.913118920299695
20
120.93116498903007
30
0
10
-71.02506299172353
20
121.0431090604539
30
0
10
-71.02506299172353
20
121.18117126202527
30
0
0
ARC
5
106
100
AcDbEntity
8
0
100
AcDbCircle
10
-60.820312271333719
20
22.778914183076484
30
0
40
1.9999999850992731
210
0
220
-0
230
1
100
AcDbArc
50
67.733543234735833
51
80.006288655358887
0
LINE
5
107
100
AcDbEntity
8
0
100
AcDbLine
10
-69.454659278465968
20
123.46813330436804
30
0
11
-70.652066809904881
21
121.39420735409442
31
0
0
SPLINE
5
108
100
AcDbEntity
8
0
100
AcDbSpline
70
0
71
3
72
17
73
13
74
0
42
0.000000001
43
0.0000000001
44
0.0000000001
40
10
40
10
40
10
40
10
40
11
40
11
40
11
40
12
40
12
40
12
40
13
40
13
40
13
40
14
40
14
40
14
40
14
10
-69.454680810312752
20
123.89422702035307
30
0
10
-69.417818288620566
20
123.91560814420842
30
0
10
-69.377338416668891
20
123.93117566943239
30
0
10
-69.33166936964254
20
123.93117566943239
30
0
10
-69.193607168071168
20
123.93117566943239
30
0
10
-69.081684628494102
20
123.81925312985533
30
0
10
-69.081684628494102
20
123.68116939643716
30
0
10
-69.081684628494102
20
123.54310719486578
30
0
10
-69.193607168071168
20
123.43118465528875
30
0
10
-69.33166936964254
20
123.43118465528875
30
0
10
-69.377338416668891
20
123.43118465528875
30
0
10
-69.417818288620566
20
123.44675218051272
30
0
10
-69.454659278465968
20
123.46813330436804
30
0
0
SPLINE
5
109
100
AcDbEntity
8
0
100
AcDbSpline
70
0
71
3
72
14
73
10
74
0
42
0.000000001
43
0.0000000001
44
0.0000000001
40
23
40
23
40
23
40
23
40
24
40
24
40
24
40
25
40
25
40
25
40
26
40
26
40
26
40
26
10
-46.116946074335644
20
15.98809945608062
30
0
10
-46.143093234354907
20
16.021749478157144
30
0
10
-46.163963555623042
20
16.059744935988412
30
0
10
-46.170109141650812
20
16.104998594720826
30
0
10
-46.188687876969112
20
16.241805034981176
30
0
10
-46.092847416651978
20
16.367792082563543
30
0
10
-45.956040976391613
20
16.38637081788184
30
0
10
-45.819213200129965
20
16.404952450694726
30
0
10
-45.693244591054302
20
16.309087756881699
30
0
10
-45.674665855736016
20
16.172281316621344
30
0
0
LINE
5
110
100
AcDbEntity
8
0
100
AcDbLine
10
-17.265963423166362
20
121.68792354480499
30
0
11
-17.26598827970588
21
118.68701342561478
31
0
0
LINE
5
111
100
AcDbEntity
8
0
100
AcDbLine
10
-17.265963423166362
20
121.68792354480499
30
0
11
-23.139660828903761
21
128.68792352990383
31
0
0
SPLINE
5
112
100
AcDbEntity
8
0
100
AcDbSpline
70
0
71
3
72
13
73
9
74
0
42
0.000000001
43
0.0000000001
44
0.0000000001
40
6
40
6
40
6
40
6
40
7
40
7
40
8
40
8
40
8
40
9
40
9
40
9
40
9
10
-98.605272462697755
20
26.610769872239743
30
0
10
-98.475521455068545
20
26.658011733484848
30
0
10
-98.332054095912127
20
26.591114447672872
30
0
10
-98.237585106576844
20
26.331652897409782
30
0
10
-98.30445479331371
20
26.18817267233316
30
0
10
-98.434205800942919
20
26.140930811088058
30
0
10
-98.521023448492727
20
26.109320827211121
30
0
10
-98.611650929431221
20
26.132166677827058
30
0
10
-98.67782134093369
20
26.187404764106446
30
0
0
SPLINE
5
113
100
AcDbEntity
8
0
100
AcDbSpline
70
0
71
3
72
14
73
10
74
0
42
0.000000001
43
0.0000000001
44
0.0000000001
40
2
40
2
40
2
40
2
40
3
40
3
40
3
40
4
40
4
40
4
40
5
40
5
40
5
40
5
10
-151.20267232635433
20
34.563104392611365
30
0
10
-151.23928977604967
20
34.48507278419514
30
0
10
-151.31178597551755
20
34.426056639225351
30
0
10
-151.4038275462153
20
34.418004045216186
30
0
10
-151.54138582933922
20
34.405969254868758
30
0
10
-151.66263903855398
20
34.507732653236936
30
0
10
-151.67467195227729
20
34.645269486449223
30
0
10
-151.68670674262475
20
34.782827769573132
30
0
10
-151.58496479416814
20
34.904079102163799
30
0
10
-151.44740651104425
20
34.916113892511206
30
0
0
LINE
5
114
100
AcDbEntity
8
0
100
AcDbLine
10
-47.850605223209186
20
11.759217546315995
30
0
11
-48.171783806151645
21
14.124249281116356
31
0
0
SPLINE
5
115
100
AcDbEntity
8
0
100
AcDbSpline
70
0
71
3
72
14
73
10
74
0
42
0.000000001
43
0.0000000001
44
0.0000000001
40
19
40
19
40
19
40
19
40
20
40
20
40
20
40
21
40
21
40
21
40
22
40
22
40
22
40
22
10
-48.171783806151645
20
14.124249281116356
30
0
10
-48.308590246412003
20
14.105670545798066
30
0
10
-48.434577293994366
20
14.201511006115208
30
0
10
-48.453158926807248
20
14.338338782376855
30
0
10
-48.471737662125548
20
14.475145222637211
30
0
10
-48.375875865807117
20
14.601135167714169
30
0
10
-48.239069425546759
20
14.61971390303246
30
0
10
-48.147516644018822
20
14.632147052322981
30
0
10
-48.063795197071499
20
14.590561915249385
30
0
10
-48.01087870820762
20
14.522520642917577
30
0
0
ARC
5
116
100
AcDbEntity
8
0
100
AcDbCircle
10
-25.735529048950117
20
14.897045737723662
30
0
40
4.0000000149012598
210
0
220
0
230
1
100
AcDbArc
50
247.7335432347343
51
270.00628865536027
0
LINE
5
117
100
AcDbEntity
8
0
100
AcDbLine
10
-45.694749280843453
20
16.04543507904981
30
0
11
-43.478557298546519
21
15.138023828931965
31
0
0
SPLINE
5
118
100
AcDbEntity
8
0
100
AcDbSpline
70
0
71
3
72
8
73
4
74
0
42
0.000000001
43
0.0000000001
44
0.0000000001
40
0
40
0
40
0
40
0
40
1
40
1
40
1
40
1
10
-149.05838944567887
20
33.425285306181323
30
0
10
-149.06236976539302
20
33.470780568695858
30
0
10
-149.05038953260879
20
33.512463201737205
30
0
10
-149.03227922430676
20
33.551029364848134
30
0
0
LINE
5
119
100
AcDbEntity
8
0
100
AcDbLine
10
-151.44740651104425
20
34.916113892511206
30
0
11
-151.65542466255548
21
37.293772244208455
31
0
0
SPLINE
5
120
100
AcDbEntity
8
0
100
AcDbSpline
70
0
71
3
72
8
73
4
74
0
42
0.000000001
43
0.0000000001
44
0.0000000001
40
0
40
0
40
0
40
0
40
1
40
1
40
1
40
1
10
-45.674665855736016
20
16.172281316621344
30
0
10
-45.668520269708225
20
16.127027657888931
30
0
10
-45.678498908808329
20
16.084821086877611
30
0
10
-45.694749280843453
20
16.04543507904981
30
0
0
LINE
5
121
100
AcDbEntity
8
0
100
AcDbLine
10
-60.062483397262326
20
24.629777586469821
30
0
11
-27.251186814031509
21
11.195318889567716
31
0
0
ARC
5
122
100
AcDbEntity
8
0
100
AcDbCircle
10
-152.56514753138137
20
33.868586562893071
30
0
40
3.0000000000000435
210
0
220
0
230
1
100
AcDbArc
50
170.00628865536029
51
260.00628865535958
0
LINE
5
123
100
AcDbEntity
8
0
100
AcDbLine
10
-149.08958405243629
20
39.094656610328009
30
0
11
-146.91918907376464
21
38.082560132653157
31
0
0
LINE
5
124
100
AcDbEntity
8
0
100
AcDbLine
10
-151.47572944631406
20
37.683914505156899
30
0
11
-149.51405447656671
21
39.057498646119612
31
0
0
SPLINE
5
125
100
AcDbEntity
8
0
100
AcDbSpline
70
0
71
3
72
14
73
10
74
0
42
0.000000001
43
0.0000000001
44
0.0000000001
40
2
40
2
40
2
40
2
40
3
40
3
40
3
40
4
40
4
40
4
40
5
40
5
40
5
40
5
10
-43.478557298546519
20
15.138023828931965
30
0
10
-43.445703062231587
20
15.217713029520098
30
0
10
-43.376104003921427
20
15.28011956272552
30
0
10
-43.284551222393475
20
15.292552712016041
30
0
10
-43.14772344613182
20
15.311134344828927
30
0
10
-43.021754837056143
20
15.215269651015905
30
0
10
-43.00317610173785
20
15.078463210755546
30
0
10
-42.984594468924954
20
14.941635434493898
30
0
10
-43.080437826736713
20
14.815669722912826
30
0
10
-43.21726560299836
20
14.797088090099935
30
0
0
SPLINE
5
126
100
AcDbEntity
8
0
100
AcDbSpline
70
0
71
3
72
17
73
13
74
0
42
0.000000001
43
0.0000000001
44
0.0000000001
40
10
40
10
40
10
40
10
40
11
40
11
40
11
40
12
40
12
40
12
40
13
40
13
40
13
40
14
40
14
40
14
40
14
10
-149.51405447656671
20
39.057498646119612
30
0
10
-149.53856701924826
20
39.09235740705725
30
0
10
-149.55760335864508
20
39.131326441651311
30
0
10
-149.56158367835926
20
39.176821704165867
30
0
10
-149.57361659208257
20
39.314358537378155
30
0
10
-149.47187464362599
20
39.435609869968822
30
0
10
-149.3343163605021
20
39.44764466031625
30
0
10
-149.19677952728981
20
39.459677574039574
30
0
10
-149.07552819469916
20
39.357935625583011
30
0
10
-149.06349528097581
20
39.220398792370702
30
0
10
-149.05951496126167
20
39.174903529856167
30
0
10
-149.07149519404589
20
39.133220896814827
30
0
10
-149.08958405243629
20
39.094656610328009
30
0
0
LINE
5
127
100
AcDbEntity
8
0
100
AcDbLine
10
-146.67445488907472
20
37.729550632753316
30
0
11
-146.4664367375635
21
35.351892281056081
31
0
0
LINE
5
128
100
AcDbEntity
8
0
100
AcDbLine
10
-149.03227922430676
20
33.551029364848134
30
0
11
-151.20267232635433
21
34.563104392611365
31
0
0
SPLINE
5
129
100
AcDbEntity
8
0
100
AcDbSpline
70
0
71
3
72
13
73
9
74
0
42
0.000000001
43
0.0000000001
44
0.0000000001
40
6
40
6
40
6
40
6
40
7
40
7
40
8
40
8
40
8
40
9
40
9
40
9
40
9
10
-151.65542466255548
20
37.293772244208455
30
0
10
-151.7929829456794
20
37.281737453861027
30
0
10
-151.91423615489416
20
37.383500852229204
30
0
10
-151.93830198234085
20
37.658574518653779
30
0
10
-151.83656191050832
20
37.779847301156067
30
0
10
-151.69900362738443
20
37.791882091503481
30
0
10
-151.60696205668668
20
37.799934685512667
30
0
10
-151.5253406412715
20
37.754402084694796
30
0
10
-151.47572944631406
20
37.683914505156899
30
0
0
LINE
5
130
100
AcDbEntity
8
0
100
AcDbLine
10
-132.40882440516242
20
120.60143465794511
30
0
11
-134.76722257976408
21
120.18560813930945
31
0
0
SPLINE
5
131
100
AcDbEntity
8
0
100
AcDbSpline
70
0
71
3
72
13
73
9
74
0
42
0.000000001
43
0.0000000001
44
0.0000000001
40
6
40
6
40
6
40
6
40
7
40
7
40
8
40
8
40
8
40
9
40
9
40
9
40
9
10
-71.02506299172353
20
126.18116753084907
30
0
10
-71.02506299172353
20
126.31925126426724
30
0
10
-70.913118920299695
20
126.43117380384432
30
0
10
-70.636994517156921
20
126.43117380384432
30
0
10
-70.525050445733086
20
126.31925126426724
30
0
10
-70.525050445733086
20
126.18116753084907
30
0
10
-70.525050445733086
20
126.088774376304
30
0
10
-70.577523556342797
20
126.01143198266016
30
0
10
-70.652066809904881
20
125.9681529706267
30
0
0
LINE
5
132
100
AcDbEntity
8
0
100
AcDbLine
10
-99.421835474304814
20
28.853481542702308
30
0
11
-98.605272462697755
21
26.610769872239743
31
0
0
LINE
5
133
100
AcDbEntity
8
0
100
AcDbLine
10
-139.34222186917577
20
126.19475734762837
30
0
11
-155.51962795031773
21
34.389206821932149
31
0
0
SPLINE
5
134
100
AcDbEntity
8
0
100
AcDbSpline
70
0
71
3
72
13
73
9
74
0
42
0.000000001
43
0.0000000001
44
0.0000000001
40
15
40
15
40
15
40
15
40
16
40
16
40
16
40
17
40
17
40
18
40
18
40
18
40
18
10
-102.9757501258476
20
24.622544814205686
30
0
10
-102.99091435502336
20
24.537693086540781
30
0
10
-103.04565736992394
20
24.461918376881329
30
0
10
-103.13247501747377
20
24.430308393004402
30
0
10
-103.2622057926053
20
24.38307389833675
30
0
10
-103.40569338425938
20
24.44996381757128
30
0
10
-103.50016237359468
20
24.709425367834363
30
0
10
-103.43327245436014
20
24.852912959488446
30
0
10
-103.30354167922862
20
24.900147454156091
30
0
0
SPLINE
5
135
100
AcDbEntity
8
0
100
AcDbSpline
70
0
71
3
72
14
73
10
74
0
42
0.000000001
43
0.0000000001
44
0.0000000001
40
23
40
23
40
23
40
23
40
24
40
24
40
24
40
25
40
25
40
25
40
26
40
26
40
26
40
26
10
-102.50841700845089
20
29.400902169659705
30
0
10
-102.54111945925823
20
29.428225194272972
30
0
10
-102.56958935412732
20
29.460916021912936
30
0
10
-102.58521386491802
20
29.503829149494663
30
0
10
-102.63244835958568
20
29.633559924626201
30
0
10
-102.56557867284884
20
29.77704014970282
30
0
10
-102.4358478977173
20
29.824274644370469
30
0
10
-102.30609689008807
20
29.87151650561557
30
0
10
-102.16262953093165
20
29.804619219803573
30
0
10
-102.11539503626403
20
29.674888444672042
30
0
0
LINE
5
136
100
AcDbEntity
8
0
100
AcDbLine
10
-136.78090452631733
20
122.58542083345642
30
0
11
-135.96184996121994
21
124.83576562895571
31
0
0
LINE
5
137
100
AcDbEntity
8
0
100
AcDbLine
10
-135.17017501841082
20
120.33440283129814
30
0
11
-136.70434231669728
21
122.16275222067156
31
0
0
SPLINE
5
138
100
AcDbEntity
8
0
100
AcDbSpline
70
0
71
3
72
14
73
10
74
0
42
0.000000001
43
0.0000000001
44
0.0000000001
40
19
40
19
40
19
40
19
40
20
40
20
40
20
40
21
40
21
40
21
40
22
40
22
40
22
40
22
10
-73.411803612057838
20
121.18117126202527
30
0
10
-73.411803612057838
20
121.0431090604539
30
0
10
-73.523726151634889
20
120.93116498903007
30
0
10
-73.66180988505306
20
120.93116498903007
30
0
10
-73.799872086624447
20
120.93116498903007
30
0
10
-73.911816158048282
20
121.0431090604539
30
0
10
-73.911816158048282
20
121.18117126202527
30
0
10
-73.911816158048282
20
121.27356441657031
30
0
10
-73.859343047438571
20
121.35092834206098
30
0
10
-73.784799793876473
20
121.39420735409442
30
0
0
LINE
5
139
100
AcDbEntity
8
0
100
AcDbLine
10
-98.67782134093369
20
26.187404764106446
30
0
11
-100.21693991258486
21
24.352734193776151
31
0
0
ARC
5
140
100
AcDbEntity
8
0
100
AcDbCircle
10
-127.15643822773116
20
114.6751502293294
30
0
40
4.000000014901147
210
0
220
0
230
1
100
AcDbArc
50
90.006288655359768
51
170.00628865536004
0
ARC
5
141
100
AcDbEntity
8
0
100
AcDbCircle
10
-27.899688650949006
20
3.8968081381951336
30
0
40
2.9999999999999942
210
0
220
0
230
1
100
AcDbArc
50
247.73354323473043
51
270.00628865535879
0
SPLINE
5
142
100
AcDbEntity
8
0
100
AcDbSpline
70
0
71
3
72
14
73
10
74
0
42
0.000000001
43
0.0000000001
44
0.0000000001
40
23
40
23
40
23
40
23
40
24
40
24
40
24
40
25
40
25
40
25
40
26
40
26
40
26
40
26
10
-135.96184996121994
20
124.83576562895571
30
0
10
-136.00192362454248
20
124.85026043736197
30
0
10
-136.03985516046134
20
124.87124671164969
30
0
10
-136.06921065803607
20
124.90623123134677
30
0
10
-136.15795533057221
20
125.01199301366529
30
0
10
-136.14417395315854
20
125.16968956920442
30
0
10
-136.03841217084002
20
125.25843424174056
30
0
10
-135.93263389416992
20
125.347192754681
30
0
10
-135.77493999257803
20
125.33338104251145
30
0
10
-135.68619532004189
20
125.22761926019292
30
0
0
SPLINE
5
143
100
AcDbEntity
8
0
100
AcDbSpline
70
0
71
3
72
8
73
4
74
0
42
0.000000001
43
0.0000000001
44
0.0000000001
40
0
40
0
40
0
40
0
40
1
40
1
40
1
40
1
10
-75.105175702292044
20
123.93117566943239
30
0
10
-75.059506655265707
20
123.93117566943239
30
0
10
-75.019026783314018
20
123.91560814420842
30
0
10
-74.982185793468631
20
123.8942054885063
30
0
0
LINE
5
144
100
AcDbEntity
8
0
100
AcDbLine
10
-70.652066809904881
20
125.9681529706267
30
0
11
-69.454680810312752
21
123.89422702035307
31
0
0
SPLINE
5
145
100
AcDbEntity
8
0
100
AcDbSpline
70
0
71
3
72
14
73
10
74
0
42
0.000000001
43
0.0000000001
44
0.0000000001
40
19
40
19
40
19
40
19
40
20
40
20
40
20
40
21
40
21
40
21
40
22
40
22
40
22
40
22
10
-136.70434231669728
20
122.16275222067156
30
0
10
-136.8101040990158
20
122.07400754813543
30
0
10
-136.96780065455494
20
122.08778892554909
30
0
10
-137.05655916749538
20
122.19356720221921
30
0
10
-137.14530384003152
20
122.29932898453774
30
0
10
-137.13150596826628
20
122.45703938048118
30
0
10
-137.02574418594776
20
122.54578405301731
30
0
10
-136.95496692332628
20
122.60517322797872
30
0
10
-136.86197365276468
20
122.61470506592509
30
0
10
-136.78090452631733
20
122.58542083345642
30
0
0
LINE
5
146
100
AcDbEntity
8
0
100
AcDbLine
10
-104.04753558010205
20
27.566231599329406
30
0
11
-102.50841700845089
21
29.400902169659705
31
0
0
LINE
5
147
100
AcDbEntity
8
0
100
AcDbLine
10
-48.01087870820762
20
14.522520642917577
30
0
11
-46.116946074335644
21
15.98809945608062
31
0
0
LINE
5
148
100
AcDbEntity
8
0
100
AcDbLine
10
-73.411803612057838
20
126.18116753084907
30
0
11
-71.02506299172353
21
126.18116753084907
31
0
0
LINE
5
149
100
AcDbEntity
8
0
100
AcDbLine
10
-10.773525189125754
20
10.897866820699598
30
0
11
-10.772976393898546
21
0.89774803282487881
31
0
0
LINE
5
150
100
AcDbEntity
8
0
100
AcDbLine
10
-135.63545973219328
20
125.10963954975188
30
0
11
-133.27707539799596
21
125.5254825627391
31
0
0
ARC
5
151
100
AcDbEntity
8
0
100
AcDbCircle
10
-63.893933204495156
20
12.151052014037038
30
0
40
2.9999999999975913
210
0
220
-0
230
1
100
AcDbArc
50
67.733543234727009
51
80.006288655365239
0
SPLINE
5
152
100
AcDbEntity
8
0
100
AcDbSpline
70
0
71
3
72
13
73
9
74
0
42
0.000000001
43
0.0000000001
44
0.0000000001
40
15
40
15
40
15
40
15
40
16
40
16
40
16
40
17
40
17
40
18
40
18
40
18
40
18
10
-47.58931352766102
20
11.418281807483961
30
0
10
-47.622167763975952
20
11.338592606895828
30
0
10
-47.691766822286127
20
11.276186073690411
30
0
10
-47.783319603814071
20
11.263752924399892
30
0
10
-47.920126044074429
20
11.245174189081599
30
0
10
-48.046115989151374
20
11.341035985400032
30
0
10
-48.083273459787968
20
11.614648865920747
30
0
10
-47.987411663469544
20
11.740638810997702
30
0
10
-47.850605223209186
20
11.759217546315995
30
0
0
LINE
5
153
100
AcDbEntity
8
0
100
AcDbLine
10
-74.982185793468631
20
123.8942054885063
30
0
11
-73.784799793876473
21
125.96813143877992
31
0
0
LINE
5
154
100
AcDbEntity
8
0
100
AcDbLine
10
-100.61731344261969
20
24.206936759940664
30
0
11
-102.9757501258476
21
24.622544814205686
31
0
0
LINE
5
155
100
AcDbEntity
8
0
100
AcDbLine
10
-10.773525189125754
20
10.897866820699598
30
0
11
-25.735090017983122
21
10.897045746915932
31
0
0
LINE
5
156
100
AcDbEntity
8
0
100
AcDbLine
10
-45.373118647869497
20
10.510849221364836
30
0
11
-47.58931352766102
21
11.418281807483961
31
0
0
LINE
5
157
100
AcDbEntity
8
0
100
AcDbLine
10
-102.10805634433628
20
29.546672004420053
30
0
11
-99.749627027685861
21
29.131084182652721
31
0
0
SPLINE
5
158
100
AcDbEntity
8
0
100
AcDbSpline
70
0
71
3
72
13
73
9
74
0
42
0.000000001
43
0.0000000001
44
0.0000000001
40
6
40
6
40
6
40
6
40
7
40
7
40
8
40
8
40
8
40
9
40
9
40
9
40
9
10
-131.33995566106273
20
123.54833848137699
30
0
10
-131.23417738439261
20
123.63709699431745
30
0
10
-131.07648348280074
20
123.62328528214789
30
0
10
-130.89899413772849
20
123.41176171751084
30
0
10
-130.91277551514213
20
123.2540651619717
30
0
10
-131.01855379181225
20
123.16530664903124
30
0
10
-131.08933105443373
20
123.10591747406981
30
0
10
-131.18230783064374
20
123.09639947652778
30
0
10
-131.26337695709108
20
123.12568370899646
30
0
0
SPLINE
5
159
100
AcDbEntity
8
0
100
AcDbSpline
70
0
71
3
72
14
73
10
74
0
42
0.000000001
43
0.0000000001
44
0.0000000001
40
2
40
2
40
2
40
2
40
3
40
3
40
3
40
4
40
4
40
4
40
5
40
5
40
5
40
5
10
-99.749627027685861
20
29.131084182652721
30
0
10
-99.734462798510052
20
29.215935910317619
30
0
10
-99.679719783609485
20
29.291710619977074
30
0
10
-99.592902136059664
20
29.323320603854004
30
0
10
-99.463151128430439
20
29.370562465099106
30
0
10
-99.319683769274022
20
29.303665179287126
30
0
10
-99.272449274606359
20
29.173934404155588
30
0
10
-99.225207413361275
20
29.04418339652636
30
0
10
-99.292084466675576
20
28.900723403947421
30
0
10
-99.421835474304814
20
28.853481542702308
30
0
0
SPLINE
5
160
100
AcDbEntity
8
0
100
AcDbSpline
70
0
71
3
72
8
73
4
74
0
42
0.000000001
43
0.0000000001
44
0.0000000001
40
0
40
0
40
0
40
0
40
1
40
1
40
1
40
1
10
-102.11539503626403
20
29.674888444672042
30
0
10
-102.0997705254733
20
29.631975317090312
30
0
10
-102.1005494556737
20
29.58861218594684
30
0
10
-102.10805634433628
20
29.546672004420053
30
0
0
SPLINE
5
161
100
AcDbEntity
8
0
100
AcDbSpline
70
0
71
3
72
13
73
9
74
0
42
0.000000001
43
0.0000000001
44
0.0000000001
40
6
40
6
40
6
40
6
40
7
40
7
40
8
40
8
40
8
40
9
40
9
40
9
40
9
10
-42.896087020055887
20
12.43205635529957
30
0
10
-42.759259243794233
20
12.450637988112462
30
0
10
-42.63329063471857
20
12.35477329429944
30
0
10
-42.596133164081976
20
12.08116041377872
30
0
10
-42.691973624399125
20
11.955173366196357
30
0
10
-42.82880140066078
20
11.936591733383469
30
0
10
-42.920354182188731
20
11.92415858409295
30
0
10
-43.00405429313475
20
11.965746618661136
30
0
10
-43.056970781998643
20
12.033787890992944
30
0
0
LINE
5
162
100
AcDbEntity
8
0
100
AcDbLine
10
-73.784799793876473
20
121.39420735409442
30
0
11
-74.982185793468631
21
123.46813330436804
31
0
0
LINE
5
163
100
AcDbEntity
8
0
100
AcDbLine
10
-132.87412295934919
20
125.37668787075042
30
0
11
-131.33995566106273
21
123.54833848137699
31
0
0
LINE
5
164
100
AcDbEntity
8
0
100
AcDbLine
10
-131.26337695709108
20
123.12568370899646
30
0
11
-132.08243152218847
21
120.87533891349716
31
0
0
ARC
5
165
100
AcDbEntity
8
0
100
AcDbCircle
10
-136.38774145023942
20
125.67413708858925
30
0
40
3.0000000000000178
210
0
220
0
230
1
100
AcDbArc
50
90.006288655359867
51
170.0062886553595
0
SPLINE
5
166
100
AcDbEntity
8
0
100
AcDbSpline
70
0
71
3
72
14
73
10
74
0
42
0.000000001
43
0.0000000001
44
0.0000000001
40
2
40
2
40
2
40
2
40
3
40
3
40
3
40
4
40
4
40
4
40
5
40
5
40
5
40
5
10
-133.27707539799596
20
125.5254825627391
30
0
10
-133.29183723109946
20
125.61040522059693
30
0
10
-133.26630209122112
20
125.70033052813477
30
0
10
-133.19552482859967
20
125.75971970309617
30
0
10
-133.08974655192955
20
125.84847821603663
30
0
10
-132.93205265033768
20
125.83466650386708
30
0
10
-132.84330797780154
20
125.72890472154855
30
0
10
-132.7545494648611
20
125.62312644487844
30
0
10
-132.76834468267907
20
125.46544638369087
30
0
10
-132.87412295934919
20
125.37668787075042
30
0
0
LINE
5
167
100
AcDbEntity
8
0
100
AcDbLine
10
-103.30354167922862
20
24.900147454156091
30
0
11
-104.12010469083567
21
27.14285912461866
31
0
0
SPLINE
5
168
100
AcDbEntity
8
0
100
AcDbSpline
70
0
71
3
72
14
73
10
74
0
42
0.000000001
43
0.0000000001
44
0.0000000001
40
19
40
19
40
19
40
19
40
20
40
20
40
20
40
21
40
21
40
21
40
22
40
22
40
22
40
22
10
-104.12010469083567
20
27.14285912461866
30
0
10
-104.24983546596719
20
27.095624629951015
30
0
10
-104.39331569104382
20
27.162494316687855
30
0
10
-104.44055755228891
20
27.292245324317079
30
0
10
-104.48779204695657
20
27.421976099448631
30
0
10
-104.42090212772203
20
27.565463691102707
30
0
10
-104.29117135259048
20
27.612698185770345
30
0
10
-104.20435370504069
20
27.644308169647275
30
0
10
-104.11370599160452
20
27.621469685608794
30
0
10
-104.04753558010205
20
27.566231599329406
30
0
0
SPLINE
5
169
100
AcDbEntity
8
0
100
AcDbSpline
70
0
71
3
72
17
73
13
74
0
42
0.000000001
43
0.0000000001
44
0.0000000001
40
10
40
10
40
10
40
10
40
11
40
11
40
11
40
12
40
12
40
12
40
13
40
13
40
13
40
14
40
14
40
14
40
14
10
-100.21693991258486
20
24.352734193776151
30
0
10
-100.18423746177749
20
24.325411169162898
30
0
10
-100.15576020033096
20
24.292700109025244
30
0
10
-100.14013568954024
20
24.249786981443528
30
0
10
-100.0929011948726
20
24.120056206311986
30
0
10
-100.15977824818691
20
23.976596213733039
30
0
10
-100.28952925581613
20
23.92935435248793
30
0
10
-100.41926003094767
20
23.882119857820292
30
0
10
-100.56272002352662
20
23.948996911134607
30
0
10
-100.60995451819426
20
24.078727686266145
30
0
10
-100.62557902898497
20
24.121640813847868
30
0
10
-100.62480009878458
20
24.165003944991334
30
0
10
-100.61731344261969
20
24.206936759940664
30
0
0
SPLINE
5
170
100
AcDbEntity
8
0
100
AcDbSpline
70
0
71
3
72
13
73
9
74
0
42
0.000000001
43
0.0000000001
44
0.0000000001
40
15
40
15
40
15
40
15
40
16
40
16
40
16
40
17
40
17
40
18
40
18
40
18
40
18
10
-146.91918907376464
20
38.082560132653157
30
0
10
-146.8825716240693
20
38.160591741069382
30
0
10
-146.81007542460142
20
38.219607886039171
30
0
10
-146.71803385390368
20
38.227660480048357
30
0
10
-146.58049702069138
20
38.239693393771681
30
0
10
-146.45922236156503
20
38.137931872027586
30
0
10
-146.43515653411836
20
37.862858205603018
30
0
10
-146.53691805586243
20
37.741583546476662
30
0
10
-146.67445488907472
20
37.729550632753316
30
0
0
LINE
5
171
100
AcDbEntity
8
0
100
AcDbLine
10
-62.757189884919399
20
14.927347139809051
30
0
11
-29.036431970525509
21
1.1205130124208296
31
0
0
LINE
5
172
100
AcDbEntity
8
0
100
AcDbLine
10
-43.21726560299836
20
14.797088090099935
30
0
11
-42.896087020055887
21
12.43205635529957
31
0
0
LINE
5
173
100
AcDbEntity
8
0
100
AcDbLine
10
-43.056970781998643
20
12.033787890992944
30
0
11
-44.950903415870613
21
10.5682090778299
31
0
0
ARC
5
174
100
AcDbEntity
8
0
100
AcDbCircle
10
-139.8231117121382
20
42.792740482516081
30
0
40
4.0000000149011292
210
0
220
0
230
1
100
AcDbArc
50
170.00628865535998
51
260.00628865535936
0
SPLINE
5
175
100
AcDbEntity
8
0
100
AcDbSpline
70
0
71
3
72
14
73
10
74
0
42
0.000000001
43
0.0000000001
44
0.0000000001
40
19
40
19
40
19
40
19
40
20
40
20
40
20
40
21
40
21
40
21
40
22
40
22
40
22
40
22
10
-146.4664367375635
20
35.351892281056081
30
0
10
-146.3288999043512
20
35.363925194779412
30
0
10
-146.20762712184893
20
35.262185122946917
30
0
10
-146.19559233150147
20
35.12462683982303
30
0
10
-146.18355941777818
20
34.987090006610742
30
0
10
-146.28532093952225
20
34.865815347484372
30
0
10
-146.42285777273455
20
34.85378243376104
30
0
10
-146.51489934343229
20
34.845729839751854
30
0
10
-146.5965422087591
20
34.891260563945622
30
0
10
-146.64615340371648
20
34.961748143483518
30
0
0
SPLINE
5
176
100
AcDbEntity
8
0
100
AcDbSpline
70
0
71
3
72
14
73
10
74
0
42
0.000000001
43
0.0000000001
44
0.0000000001
40
23
40
23
40
23
40
23
40
24
40
24
40
24
40
25
40
25
40
25
40
26
40
26
40
26
40
26
10
-148.60782837346386
20
33.588164002520813
30
0
10
-148.58331583078231
20
33.553305241583175
30
0
10
-148.5642813680096
20
33.514357656900714
30
0
10
-148.56030104829543
20
33.468862394386164
30
0
10
-148.54826813457211
20
33.331325561173877
30
0
10
-148.65000820640458
20
33.210052778671596
30
0
10
-148.78754503961684
20
33.198019864948272
30
0
10
-148.92510332274077
20
33.185985074600843
30
0
10
-149.04635653195552
20
33.287748472969042
30
0
10
-149.05838944567887
20
33.425285306181323
30
0
0
SPLINE
5
177
100
AcDbEntity
8
0
100
AcDbSpline
70
0
71
3
72
14
73
10
74
0
42
0.000000001
43
0.0000000001
44
0.0000000001
40
2
40
2
40
2
40
2
40
3
40
3
40
3
40
4
40
4
40
4
40
5
40
5
40
5
40
5
10
-73.784799793876473
20
125.96813143877992
30
0
10
-73.859343047438571
20
126.01141045081337
30
0
10
-73.911816158048282
20
126.088774376304
30
0
10
-73.911816158048282
20
126.18116753084907
30
0
10
-73.911816158048282
20
126.31925126426724
30
0
10
-73.799872086624447
20
126.43117380384432
30
0
10
-73.66180988505306
20
126.43117380384432
30
0
10
-73.523726151634889
20
126.43117380384432
30
0
10
-73.411803612057838
20
126.31925126426724
30
0
10
-73.411803612057838
20
126.18116753084907
30
0
0
LINE
5
178
100
AcDbEntity
8
0
100
AcDbLine
10
-146.64615340371648
20
34.961748143483518
30
0
11
-148.60782837346386
21
33.588164002520813
31
0
0
SPLINE
5
179
100
AcDbEntity
8
0
100
AcDbSpline
70
0
71
3
72
8
73
4
74
0
42
0.000000001
43
0.0000000001
44
0.0000000001
40
0
40
0
40
0
40
0
40
1
40
1
40
1
40
1
10
-135.68619532004189
20
125.22761926019292
30
0
10
-135.65683982246719
20
125.19263474049583
30
0
10
-135.64274527852587
20
125.15161874720164
30
0
10
-135.63545973219328
20
125.10963954975188
30
0
0
SPLINE
5
180
100
AcDbEntity
8
0
100
AcDbSpline
70
0
71
3
72
17
73
13
74
0
42
0.000000001
43
0.0000000001
44
0.0000000001
40
10
40
10
40
10
40
10
40
11
40
11
40
11
40
12
40
12
40
12
40
13
40
13
40
13
40
14
40
14
40
14
40
14
10
-132.08243152218847
20
120.87533891349716
30
0
10
-132.04235785886593
20
120.86084410509091
30
0
10
-132.00441248254276
20
120.83984133645161
30
0
10
-131.97505698496803
20
120.80485681675454
30
0
10
-131.8863123124319
20
120.699095034436
30
0
10
-131.9001075302499
20
120.54141497324846
30
0
10
-132.00588580691999
20
120.45265646030799
30
0
10
-132.11164758923854
20
120.36391178777187
30
0
10
-132.26932765042608
20
120.37770700558985
30
0
10
-132.35807232296222
20
120.48346878790838
30
0
10
-132.38742782053694
20
120.51845330760545
30
0
10
-132.40152236447824
20
120.55946930089966
30
0
10
-132.40882440516242
20
120.60143465794511
30
0
0
SPLINE
5
181
100
AcDbEntity
8
0
100
AcDbSpline
70
0
71
3
72
17
73
13
74
0
42
0.000000001
43
0.0000000001
44
0.0000000001
40
10
40
10
40
10
40
10
40
11
40
11
40
11
40
12
40
12
40
12
40
13
40
13
40
13
40
14
40
14
40
14
40
14
10
-44.950903415870613
20
10.5682090778299
30
0
10
-44.924756255851349
20
10.534559055753373
30
0
10
-44.903883037088619
20
10.496542261920823
30
0
10
-44.897737451060848
20
10.451288603188409
30
0
10
-44.879158715742534
20
10.314482162928055
30
0
10
-44.975002073554293
20
10.188516451346977
30
0
10
-45.111829849815933
20
10.16993481853409
30
0
10
-45.248636290076291
20
10.151356083215797
30
0
10
-45.374602001657358
20
10.247199441027535
30
0
10
-45.393180736975658
20
10.384005881287887
30
0
10
-45.399326323003436
20
10.429259540020306
30
0
10
-45.389347683903331
20
10.471466111031624
30
0
10
-45.373118647869497
20
10.510849221364836
30
0
0
SPLINE
5
182
100
AcDbEntity
8
0
100
AcDbSpline
70
0
71
3
72
13
73
9
74
0
42
0.000000001
43
0.0000000001
44
0.0000000001
40
15
40
15
40
15
40
15
40
16
40
16
40
16
40
17
40
17
40
18
40
18
40
18
40
18
10
-134.76722257976408
20
120.18560813930945
30
0
10
-134.75246074666052
20
120.10068548145162
30
0
10
-134.77799588653886
20
120.01076017391378
30
0
10
-134.84877314916034
20
119.95137099895238
30
0
10
-134.95453493147889
20
119.86262632641625
30
0
10
-135.11224532742233
20
119.87642419818147
30
0
10
-135.2897346724946
20
120.08794776281854
30
0
10
-135.27593680072937
20
120.245658158762
30
0
10
-135.17017501841082
20
120.33440283129814
30
0
0
LINE
5
183
100
AcDbEntity
8
0
100
AcDbLine
10
-10.772976393898546
20
0.89774803282487881
30
0
11
-27.899359377725066
21
0.89680815626529409
31
0
0
LINE
5
184
100
AcDbEntity
8
0
100
AcDbLine
10
-71.02506299172353
20
121.18117126202527
30
0
11
-73.411803612057838
21
121.18117126202527
31
0
0
LINE
5
185
100
AcDbEntity
8
0
100
AcDbLine
10
-131.09574546765461
20
115.36931057730079
30
0
11
-143.76241895206167
21
43.486900830487478
31
0
0
LINE
5
186
100
AcDbEntity
8
0
100
AcDbLine
10
-16.85519967100532
20
130.52023554533153
30
0
11
-96.899239629887745
21
144.62510100689809
31
0
0
LINE
5
187
100
AcDbEntity
8
0
100
AcDbLine
10
-4.286703940694534
20
138.45956264396736
30
0
11
-93.999158785657812
21
154.26813635495313
31
0
0
LINE
5
188
100
AcDbEntity
8
0
100
AcDbLine
10
-134.23394909446256
20
40.687101702726096
30
0
11
-20.98440100765162
21
40.699531717405449
31
0
0
LINE
5
189
100
AcDbEntity
8
0
100
AcDbLine
10
-140.1065083079481
20
47.685745243119662
30
0
11
-140.10648345140856
21
50.686655362309871
31
0
0
SPLINE
5
190
100
AcDbEntity
8
0
100
AcDbSpline
70
0
71
3
72
8
73
4
74
0
42
0.000000001
43
0.0000000001
44
0.0000000001
40
0
40
0
40
0
40
0
40
1
40
1
40
1
40
1
10
-21.686276411073134
20
44.146049527731634
30
0
10
-21.715631908647872
20
44.181034047428732
30
0
10
-21.729726452589148
20
44.222050040722927
30
0
10
-21.737011998921783
20
44.264029238172668
30
0
0
LINE
5
191
100
AcDbEntity
8
0
100
AcDbLine
10
-97.309988333852232
20
144.74389120145435
30
0
11
-130.1212849170829
21
158.17834989835643
31
0
0
LINE
5
192
100
AcDbEntity
8
0
100
AcDbLine
10
-18.030249861939247
20
43.178911440296197
30
0
11
-1.852843780797282
21
134.98446196599201
31
0
0
SPLINE
5
193
100
AcDbEntity
8
0
100
AcDbSpline
70
0
71
3
72
14
73
10
74
0
42
0.000000001
43
0.0000000001
44
0.0000000001
40
2
40
2
40
2
40
2
40
3
40
3
40
3
40
4
40
4
40
4
40
5
40
5
40
5
40
5
10
-24.095396333119091
20
43.848186225185458
30
0
10
-24.080634500015563
20
43.763263567327655
30
0
10
-24.106169639893878
20
43.673338259789816
30
0
10
-24.176946902515375
20
43.61394908482842
30
0
10
-24.282725179185476
20
43.525190571887926
30
0
10
-24.440419080777321
20
43.539002284057531
30
0
10
-24.529163753313469
20
43.644764066376055
30
0
10
-24.617922266253931
20
43.750542343046142
30
0
10
-24.604127048435934
20
43.908222404233697
30
0
10
-24.498348771765826
20
43.99698091717417
30
0
0
SPLINE
5
194
100
AcDbEntity
8
0
100
AcDbSpline
70
0
71
3
72
14
73
10
74
0
42
0.000000001
43
0.0000000001
44
0.0000000001
40
23
40
23
40
23
40
23
40
24
40
24
40
24
40
25
40
25
40
25
40
26
40
26
40
26
40
26
10
-21.410621769895087
20
44.537903158968824
30
0
10
-21.370548106572549
20
44.52340835056259
30
0
10
-21.332616570653691
20
44.502422076274883
30
0
10
-21.303261073078957
20
44.467437556577778
30
0
10
-21.214516400542838
20
44.361675774259254
30
0
10
-21.228297777956499
20
44.203979218720164
30
0
10
-21.334059560275019
20
44.115234546184006
30
0
10
-21.439837836945109
20
44.026476033243547
30
0
10
-21.597531738537015
20
44.040287745413103
30
0
10
-21.686276411073134
20
44.146049527731634
30
0
0
LINE
5
195
100
AcDbEntity
8
0
100
AcDbLine
10
-30.215594472416853
20
50.698518567787538
30
0
11
-140.10648345140856
21
50.686655362309871
31
0
0
LINE
5
196
100
AcDbEntity
8
0
100
AcDbLine
10
-8.3401925068082292
20
135.822639423076
30
0
11
-6.1697994047606519
21
134.81056439531278
31
0
0
LINE
5
197
100
AcDbEntity
8
0
100
AcDbLine
10
-109.3615930229069
20
154.85114814500656
30
0
11
-111.25552565677886
21
153.38556933184353
31
0
0
LINE
5
198
100
AcDbEntity
8
0
100
AcDbLine
10
-22.202296712704207
20
49.03926595662643
30
0
11
-20.668129414417766
21
47.210916567252994
31
0
0
LINE
5
199
100
AcDbEntity
8
0
100
AcDbLine
10
-57.950636256809929
20
140.52018724522188
30
0
11
-58.767199268416974
21
142.76289891568439
31
0
0
LINE
5
200
100
AcDbEntity
8
0
100
AcDbLine
10
-58.694650390181067
20
143.1862640238177
30
0
11
-57.155531818529909
21
145.02093459414797
31
0
0
SPLINE
5
201
100
AcDbEntity
8
0
100
AcDbSpline
70
0
71
3
72
13
73
9
74
0
42
0.000000001
43
0.0000000001
44
0.0000000001
40
15
40
15
40
15
40
15
40
16
40
16
40
16
40
17
40
17
40
18
40
18
40
18
40
18
10
-54.396721605267189
20
144.75112397371842
30
0
10
-54.381557376091401
20
144.83597570138332
30
0
10
-54.326814361190827
20
144.91175041104279
30
0
10
-54.239996713641013
20
144.94336039491975
30
0
10
-54.110265938509492
20
144.99059488958738
30
0
10
-53.966778346855399
20
144.92370497035287
30
0
10
-53.872309357520116
20
144.66424342008975
30
0
10
-53.939199276754664
20
144.52075582843568
30
0
10
-54.068930051886184
20
144.47352133376805
30
0
0
SPLINE
5
202
100
AcDbEntity
8
0
100
AcDbSpline
70
0
71
3
72
14
73
10
74
0
42
0.000000001
43
0.0000000001
44
0.0000000001
40
19
40
19
40
19
40
19
40
20
40
20
40
20
40
21
40
21
40
21
40
22
40
22
40
22
40
22
10
-20.668129414417766
20
47.210916567252994
30
0
10
-20.562367632099239
20
47.29966123978911
30
0
10
-20.404671076560106
20
47.285879862375452
30
0
10
-20.315912563619651
20
47.180101585705366
30
0
10
-20.227167891083539
20
47.074339803386842
30
0
10
-20.240965762848756
20
46.916629407443359
30
0
10
-20.346727545167283
20
46.827884734907251
30
0
10
-20.417504807788731
20
46.768495559945819
30
0
10
-20.510498078350381
20
46.758963721999443
30
0
10
-20.591567204797691
20
46.788247954468119
30
0
0
LINE
5
203
100
AcDbEntity
8
0
100
AcDbLine
10
-21.737011998921783
20
44.264029238172668
30
0
11
-24.095396333119091
21
43.848186225185458
31
0
0
SPLINE
5
204
100
AcDbEntity
8
0
100
AcDbSpline
70
0
71
3
72
13
73
9
74
0
42
0.000000001
43
0.0000000001
44
0.0000000001
40
6
40
6
40
6
40
6
40
7
40
7
40
8
40
8
40
8
40
9
40
9
40
9
40
9
10
-26.032516070052267
20
45.825330306547592
30
0
10
-26.138294346722397
20
45.736571793607148
30
0
10
-26.295988248314266
20
45.750383505776703
30
0
10
-26.473477593386534
20
45.961907070413758
30
0
10
-26.45969621597288
20
46.119603625952877
30
0
10
-26.353917939302754
20
46.208362138893335
30
0
10
-26.283140676681292
20
46.26775131385476
30
0
10
-26.190163900471262
20
46.277269311396807
30
0
10
-26.109094774023909
20
46.247985078928131
30
0
0
SPLINE
5
205
100
AcDbEntity
8
0
100
AcDbSpline
70
0
71
3
72
8
73
4
74
0
42
0.000000001
43
0.0000000001
44
0.0000000001
40
0
40
0
40
0
40
0
40
1
40
1
40
1
40
1
10
-8.3140822854361129
20
135.94838348174281
30
0
10
-8.3101019657219801
20
135.90288821922829
30
0
10
-8.3220821985062194
20
135.86120558618691
30
0
10
-8.3401925068082292
20
135.822639423076
30
0
0
LINE
5
206
100
AcDbEntity
8
0
100
AcDbLine
10
-26.109094774023909
20
46.247985078928131
30
0
11
-25.290040208926492
21
48.498329874427391
31
0
0
LINE
5
207
100
AcDbEntity
8
0
100
AcDbLine
10
-146.59894654198857
20
158.47580196722456
30
0
11
-146.59949533721576
21
168.47592075509922
31
0
0
ARC
5
208
100
AcDbEntity
8
0
100
AcDbCircle
10
-30.216033503383805
20
54.698518558595154
30
0
40
4.0000000149011381
210
-0
220
0
230
1
100
AcDbArc
50
270.0062886553597
51
350.00628865535964
0
LINE
5
209
100
AcDbEntity
8
0
100
AcDbLine
10
-53.32493615101275
20
141.80743718859472
30
0
11
-54.86405472266388
21
139.97276661826442
31
0
0
LINE
5
210
100
AcDbEntity
8
0
100
AcDbLine
10
-86.347408739391199
20
48.192497525899341
30
0
11
-83.960668119056905
21
48.192497525899356
31
0
0
SPLINE
5
211
100
AcDbEntity
8
0
100
AcDbSpline
70
0
71
3
72
17
73
13
74
0
42
0.000000001
43
0.0000000001
44
0.0000000001
40
10
40
10
40
10
40
10
40
11
40
11
40
11
40
12
40
12
40
12
40
13
40
13
40
13
40
14
40
14
40
14
40
14
10
-7.8584172545482698
20
130.31617014180458
30
0
10
-7.8339047118667251
20
130.2813113808669
30
0
10
-7.8148683724698991
20
130.24234234627284
30
0
10
-7.8108880527557591
20
130.19684708375826
30
0
10
-7.7988551390324083
20
130.05931025054599
30
0
10
-7.9005970874890128
20
129.93805891795535
30
0
10
-8.0381553706128859
20
129.92602412760792
30
0
10
-8.175692203825184
20
129.9139912138846
30
0
10
-8.2969435364158368
20
130.01573316234118
30
0
10
-8.3089764501391965
20
130.15326999555347
30
0
10
-8.3129567698533275
20
130.19876525806799
30
0
10
-8.3009765370690864
20
130.24044789110934
30
0
10
-8.2828876786787209
20
130.27901217759617
30
0
0
ARC
5
212
100
AcDbEntity
8
0
100
AcDbCircle
10
-131.63694268216432
20
154.47662305020049
30
0
40
4.0000000149012669
210
0
220
-0
230
1
100
AcDbArc
50
67.733543234733972
51
90.006288655359768
0
LINE
5
213
100
AcDbEntity
8
0
100
AcDbLine
10
-111.99935308324498
20
158.8628195665593
30
0
11
-109.78315820345345
21
157.95538698044015
31
0
0
SPLINE
5
214
100
AcDbEntity
8
0
100
AcDbSpline
70
0
71
3
72
17
73
13
74
0
42
0.000000001
43
0.0000000001
44
0.0000000001
40
10
40
10
40
10
40
10
40
11
40
11
40
11
40
12
40
12
40
12
40
13
40
13
40
13
40
14
40
14
40
14
40
14
10
-57.155531818529909
20
145.02093459414797
30
0
10
-57.188234269337258
20
145.04825761876126
30
0
10
-57.216711530783783
20
145.08096867889887
30
0
10
-57.232336041574506
20
145.12388180648063
30
0
10
-57.279570536242147
20
145.25361258161215
30
0
10
-57.212693482927847
20
145.39707257419107
30
0
10
-57.082942475298594
20
145.44431443543618
30
0
10
-56.953211700167053
20
145.49154893010385
30
0
10
-56.809751707588134
20
145.42467187678952
30
0
10
-56.7625172129205
20
145.29494110165797
30
0
10
-56.74689270212977
20
145.25202797407627
30
0
10
-56.747671632330174
20
145.20866484293282
30
0
10
-56.755158288495061
20
145.16673202798347
30
0
0
SPLINE
5
215
100
AcDbEntity
8
0
100
AcDbSpline
70
0
71
3
72
14
73
10
74
0
42
0.000000001
43
0.0000000001
44
0.0000000001
40
2
40
2
40
2
40
2
40
3
40
3
40
3
40
4
40
4
40
4
40
5
40
5
40
5
40
5
10
-6.1697994047606519
20
134.81056439531278
30
0
10
-6.1331819550653233
20
134.88859600372902
30
0
10
-6.0606857555974329
20
134.94761214869879
30
0
10
-5.9686441848996852
20
134.95566474270797
30
0
10
-5.8310859017757766
20
134.96769953305542
30
0
10
-5.7098326925610081
20
134.86593613468722
30
0
10
-5.6977997788376955
20
134.72839930147495
30
0
10
-5.6857649884902584
20
134.59084101835103
30
0
10
-5.7875069369468291
20
134.46958968576035
30
0
10
-5.9250652200707377
20
134.45755489541293
30
0
0
SPLINE
5
216
100
AcDbEntity
8
0
100
AcDbSpline
70
0
71
3
72
13
73
9
74
0
42
0.000000001
43
0.0000000001
44
0.0000000001
40
6
40
6
40
6
40
6
40
7
40
7
40
8
40
8
40
8
40
9
40
9
40
9
40
9
10
-5.7170470685595287
20
132.07989654371571
30
0
10
-5.5794887854356201
20
132.09193133406313
30
0
10
-5.4582355762208152
20
131.99016793569496
30
0
10
-5.4341697487741492
20
131.71509426927037
30
0
10
-5.5359098206066726
20
131.59382148676809
30
0
10
-5.6734681037305457
20
131.58178669642066
30
0
10
-5.7655096744283245
20
131.57373410241149
30
0
10
-5.8471310898434954
20
131.61926670322939
30
0
10
-5.8967422848009328
20
131.68975428276727
30
0
0
LINE
5
217
100
AcDbEntity
8
0
100
AcDbLine
10
-146.59949533721576
20
168.47592075509922
30
0
11
-129.47311235338933
21
168.47686063165889
31
0
0
LINE
5
218
100
AcDbEntity
8
0
100
AcDbLine
10
-111.67772245027106
20
153.32823370887434
30
0
11
-113.89391443256797
21
154.23564495899217
31
0
0
SPLINE
5
219
100
AcDbEntity
8
0
100
AcDbSpline
70
0
71
3
72
14
73
10
74
0
42
0.000000001
43
0.0000000001
44
0.0000000001
40
2
40
2
40
2
40
2
40
3
40
3
40
3
40
4
40
4
40
4
40
5
40
5
40
5
40
5
10
-83.587671937238241
20
43.405537349144709
30
0
10
-83.513128683676157
20
43.362258337111228
30
0
10
-83.460655573066447
20
43.284894411620598
30
0
10
-83.460655573066447
20
43.192501257075534
30
0
10
-83.460655573066461
20
43.054417523657371
30
0
10
-83.572599644490296
20
42.942494984080284
30
0
10
-83.710661846061669
20
42.942494984080291
30
0
10
-83.848745579479839
20
42.942494984080298
30
0
10
-83.960668119056905
20
43.054417523657392
30
0
10
-83.960668119056891
20
43.192501257075541
30
0
0
SPLINE
5
220
100
AcDbEntity
8
0
100
AcDbSpline
70
0
71
3
72
13
73
9
74
0
42
0.000000001
43
0.0000000001
44
0.0000000001
40
6
40
6
40
6
40
6
40
7
40
7
40
8
40
8
40
8
40
9
40
9
40
9
40
9
10
-86.347408739391199
20
43.192501257075541
30
0
10
-86.347408739391199
20
43.054417523657392
30
0
10
-86.459352810815034
20
42.942494984080291
30
0
10
-86.735477213957807
20
42.942494984080312
30
0
10
-86.847421285381628
20
43.054417523657385
30
0
10
-86.847421285381643
20
43.192501257075534
30
0
10
-86.847421285381643
20
43.284894411620613
30
0
10
-86.794948174771932
20
43.362236805264452
30
0
10
-86.720404921209848
20
43.405515817297918
30
0
0
SPLINE
5
221
100
AcDbEntity
8
0
100
AcDbSpline
70
0
71
3
72
13
73
9
74
0
42
0.000000001
43
0.0000000001
44
0.0000000001
40
15
40
15
40
15
40
15
40
16
40
16
40
16
40
17
40
17
40
18
40
18
40
18
40
18
10
-10.453282657350336
20
131.29110865527099
30
0
10
-10.489900107045704
20
131.21307704685478
30
0
10
-10.562396306513557
20
131.15406090188498
30
0
10
-10.654437877211333
20
131.14600830787577
30
0
10
-10.791974710423602
20
131.13397539415249
30
0
10
-10.913249369549982
20
131.23573691589658
30
0
10
-10.937315196996646
20
131.51081058232114
30
0
10
-10.83555367525255
20
131.63208524144753
30
0
10
-10.698016842040289
20
131.64411815517087
30
0
0
LINE
5
222
100
AcDbEntity
8
0
100
AcDbLine
10
-10.726318327398488
20
134.41192064444061
30
0
11
-8.7646433576511136
21
135.7855047854033
31
0
0
LINE
5
223
100
AcDbEntity
8
0
100
AcDbLine
10
-82.390285937646098
20
45.479463299418299
30
0
11
-83.587671937238241
21
43.405537349144709
31
0
0
ARC
5
224
100
AcDbEntity
8
0
100
AcDbCircle
10
-129.47278308016539
20
165.47686064972902
30
0
40
2.9999999999999809
210
0
220
-0
230
1
100
AcDbArc
50
67.733543234730632
51
90.006288655358773
0
SPLINE
5
225
100
AcDbEntity
8
0
100
AcDbSpline
70
0
71
3
72
14
73
10
74
0
42
0.000000001
43
0.0000000001
44
0.0000000001
40
23
40
23
40
23
40
23
40
24
40
24
40
24
40
25
40
25
40
25
40
26
40
26
40
26
40
26
10
-82.390285937646098
20
45.905535483556569
30
0
10
-82.353423415953955
20
45.926916607411911
30
0
10
-82.312965075849021
20
45.942484132635869
30
0
10
-82.267296028822699
20
45.942484132635862
30
0
10
-82.12923382725134
20
45.942484132635869
30
0
10
-82.017289755827477
20
45.830561593058832
30
0
10
-82.017289755827477
20
45.692499391487459
30
0
10
-82.017289755827477
20
45.554415658069296
30
0
10
-82.129233827251312
20
45.442493118492209
30
0
10
-82.26729602882267
20
45.442493118492216
30
0
0
SPLINE
5
226
100
AcDbEntity
8
0
100
AcDbSpline
70
0
71
3
72
14
73
10
74
0
42
0.000000001
43
0.0000000001
44
0.0000000001
40
23
40
23
40
23
40
23
40
24
40
24
40
24
40
25
40
25
40
25
40
26
40
26
40
26
40
26
10
-111.25552565677886
20
153.38556933184353
30
0
10
-111.22937849675962
20
153.351919309767
30
0
10
-111.20850817549149
20
153.31392385193573
30
0
10
-111.20236258946372
20
153.26867019320332
30
0
10
-111.18378385414539
20
153.13186375294299
30
0
10
-111.27962431446252
20
153.00587670536058
30
0
10
-111.4164307547229
20
152.98729797004231
30
0
10
-111.55325853098458
20
152.96871633722944
30
0
10
-111.67922714006022
20
153.06458103104245
30
0
10
-111.69780587537851
20
153.20138747130278
30
0
0
SPLINE
5
227
100
AcDbEntity
8
0
100
AcDbSpline
70
0
71
3
72
8
73
4
74
0
42
0.000000001
43
0.0000000001
44
0.0000000001
40
0
40
0
40
0
40
0
40
1
40
1
40
1
40
1
10
-111.69780587537851
20
153.20138747130278
30
0
10
-111.70395146140628
20
153.24664113003521
30
0
10
-111.69397282230618
20
153.28884770104656
30
0
10
-111.67772245027106
20
153.32823370887434
30
0
0
LINE
5
228
100
AcDbEntity
8
0
100
AcDbLine
10
-10.698016842040289
20
131.64411815517087
30
0
11
-10.906034993551494
21
134.02177650686806
31
0
0
SPLINE
5
229
100
AcDbEntity
8
0
100
AcDbSpline
70
0
71
3
72
8
73
4
74
0
42
0.000000001
43
0.0000000001
44
0.0000000001
40
0
40
0
40
0
40
0
40
1
40
1
40
1
40
1
10
-55.257076694850731
20
139.69878034325208
30
0
10
-55.272701205641468
20
139.74169347083381
30
0
10
-55.271922275441085
20
139.78505660197729
30
0
10
-55.264415386778495
20
139.82699678350409
30
0
0
LINE
5
230
100
AcDbEntity
8
0
100
AcDbLine
10
-114.15520612811618
20
154.57658069782417
30
0
11
-114.47638471105861
21
156.94161243262454
31
0
0
SPLINE
5
231
100
AcDbEntity
8
0
100
AcDbSpline
70
0
71
3
72
14
73
10
74
0
42
0.000000001
43
0.0000000001
44
0.0000000001
40
19
40
19
40
19
40
19
40
20
40
20
40
20
40
21
40
21
40
21
40
22
40
22
40
22
40
22
10
-10.906034993551494
20
134.02177650686806
30
0
10
-11.043571826763756
20
134.00974359314472
30
0
10
-11.16484460926606
20
134.11148366497724
30
0
10
-11.176879399613494
20
134.24904194810114
30
0
10
-11.188912313336807
20
134.38657878131343
30
0
10
-11.087150791592713
20
134.50785344043982
30
0
10
-10.949613958380446
20
134.51988635416311
30
0
10
-10.857572387682708
20
134.52793894817231
30
0
10
-10.775929522355895
20
134.48240822397852
30
0
10
-10.726318327398488
20
134.41192064444061
30
0
0
ARC
5
232
100
AcDbEntity
8
0
100
AcDbCircle
10
-93.478538526619431
20
157.22261677388704
30
0
40
2.9999999999975353
210
0
220
0
230
1
100
AcDbArc
50
247.73354323472702
51
260.00628865536527
0
LINE
5
233
100
AcDbEntity
8
0
100
AcDbLine
10
-86.720404921209848
20
43.405515817297918
30
0
11
-87.917790920801977
21
45.479441767571529
31
0
0
SPLINE
5
234
100
AcDbEntity
8
0
100
AcDbSpline
70
0
71
3
72
13
73
9
74
0
42
0.000000001
43
0.0000000001
44
0.0000000001
40
6
40
6
40
6
40
6
40
7
40
7
40
8
40
8
40
8
40
9
40
9
40
9
40
9
10
-114.47638471105861
20
156.94161243262454
30
0
10
-114.61321248732025
20
156.92303079981167
30
0
10
-114.73918109639592
20
157.01889549362465
30
0
10
-114.77633856703251
20
157.29250837414534
30
0
10
-114.68049810671536
20
157.41849542172776
30
0
10
-114.54367033045371
20
157.43707705454062
30
0
10
-114.45211754892576
20
157.44951020383118
30
0
10
-114.36841743797973
20
157.407922169263
30
0
10
-114.31550094911584
20
157.33988089693116
30
0
0
SPLINE
5
235
100
AcDbEntity
8
0
100
AcDbSpline
70
0
71
3
72
14
73
10
74
0
42
0.000000001
43
0.0000000001
44
0.0000000001
40
19
40
19
40
19
40
19
40
20
40
20
40
20
40
21
40
21
40
21
40
22
40
22
40
22
40
22
10
-109.20068792496286
20
155.24941950680778
30
0
10
-109.06388148470251
20
155.26799824212605
30
0
10
-108.93789443712016
20
155.17215778180892
30
0
10
-108.91931280430727
20
155.03533000554728
30
0
10
-108.90073406898898
20
154.89852356528695
30
0
10
-108.9965958653074
20
154.77253362020997
30
0
10
-109.13340230556776
20
154.75395488489167
30
0
10
-109.22495508709568
20
154.74152173560117
30
0
10
-109.308676534043
20
154.78310687267475
30
0
10
-109.3615930229069
20
154.85114814500656
30
0
0
LINE
5
236
100
AcDbEntity
8
0
100
AcDbLine
10
-54.068930051886184
20
144.47352133376805
30
0
11
-53.252367040279118
21
142.23080966330548
31
0
0
SPLINE
5
237
100
AcDbEntity
8
0
100
AcDbSpline
70
0
71
3
72
14
73
10
74
0
42
0.000000001
43
0.0000000001
44
0.0000000001
40
2
40
2
40
2
40
2
40
3
40
3
40
3
40
4
40
4
40
4
40
5
40
5
40
5
40
5
10
-57.622844703428896
20
140.24258460527142
30
0
10
-57.638008932604698
20
140.15773287760655
30
0
10
-57.692751947505258
20
140.08195816794708
30
0
10
-57.779569595055079
20
140.05034818407015
30
0
10
-57.909320602684311
20
140.00310632282506
30
0
10
-58.052787961840721
20
140.07000360863702
30
0
10
-58.100022456508384
20
140.19973438376857
30
0
10
-58.147264317753482
20
140.32948539139781
30
0
10
-58.080387264439175
20
140.47294538397671
30
0
10
-57.950636256809929
20
140.52018724522188
30
0
0
LINE
5
238
100
AcDbEntity
8
0
100
AcDbLine
10
-55.264415386778495
20
139.82699678350409
30
0
11
-57.622844703428896
21
140.24258460527142
31
0
0
LINE
5
239
100
AcDbEntity
8
0
100
AcDbLine
10
-56.755158288495061
20
145.16673202798347
30
0
11
-54.396721605267189
21
144.75112397371842
31
0
0
SPLINE
5
240
100
AcDbEntity
8
0
100
AcDbSpline
70
0
71
3
72
13
73
9
74
0
42
0.000000001
43
0.0000000001
44
0.0000000001
40
15
40
15
40
15
40
15
40
16
40
16
40
16
40
17
40
17
40
18
40
18
40
18
40
18
10
-86.720404921209834
20
47.97946143383021
30
0
10
-86.794948174771918
20
48.022740445863633
30
0
10
-86.847421285381628
20
48.100104371354305
30
0
10
-86.847421285381643
20
48.192497525899334
30
0
10
-86.847421285381643
20
48.330559727470714
30
0
10
-86.735477213957807
20
48.442503798894563
30
0
10
-86.459352810815034
20
48.442503798894563
30
0
10
-86.347408739391199
20
48.330559727470714
30
0
10
-86.347408739391199
20
48.192497525899341
30
0
0
SPLINE
5
241
100
AcDbEntity
8
0
100
AcDbSpline
70
0
71
3
72
14
73
10
74
0
42
0.000000001
43
0.0000000001
44
0.0000000001
40
19
40
19
40
19
40
19
40
20
40
20
40
20
40
21
40
21
40
21
40
22
40
22
40
22
40
22
10
-53.252367040279118
20
142.23080966330548
30
0
10
-53.122636265147598
20
142.27804415797311
30
0
10
-52.979156040070961
20
142.21117447123629
30
0
10
-52.931914178825863
20
142.08142346360705
30
0
10
-52.884679684158201
20
141.9516926884755
30
0
10
-52.951569603392755
20
141.80820509682141
30
0
10
-53.081300378524304
20
141.76097060215378
30
0
10
-53.168118026074097
20
141.72936061827687
30
0
10
-53.258765739510253
20
141.75219910231533
30
0
10
-53.32493615101275
20
141.80743718859472
30
0
0
LINE
5
242
100
AcDbEntity
8
0
100
AcDbLine
10
-146.59894654198857
20
158.47580196722456
30
0
11
-131.63738171313128
21
158.4766230410082
31
0
0
LINE
5
243
100
AcDbEntity
8
0
100
AcDbLine
10
-109.52186650790532
20
157.61445124160809
30
0
11
-109.20068792496286
21
155.24941950680778
31
0
0
SPLINE
5
244
100
AcDbEntity
8
0
100
AcDbSpline
70
0
71
3
72
8
73
4
74
0
42
0.000000001
43
0.0000000001
44
0.0000000001
40
0
40
0
40
0
40
0
40
1
40
1
40
1
40
1
10
-82.26729602882267
20
45.442493118492216
30
0
10
-82.312965075849036
20
45.442493118492209
30
0
10
-82.353444947800739
20
45.458060643716195
30
0
10
-82.390285937646098
20
45.479463299418299
30
0
0
SPLINE
5
245
100
AcDbEntity
8
0
100
AcDbSpline
70
0
71
3
72
17
73
13
74
0
42
0.000000001
43
0.0000000001
44
0.0000000001
40
10
40
10
40
10
40
10
40
11
40
11
40
11
40
12
40
12
40
12
40
13
40
13
40
13
40
14
40
14
40
14
40
14
10
-87.917790920801977
20
45.479441767571529
30
0
10
-87.954653442494163
20
45.458060643716195
30
0
10
-87.995133314445852
20
45.442493118492216
30
0
10
-88.040802361472203
20
45.442493118492216
30
0
10
-88.178864563043561
20
45.442493118492216
30
0
10
-88.290787102620612
20
45.554415658069296
30
0
10
-88.290787102620641
20
45.692499391487459
30
0
10
-88.290787102620612
20
45.830561593058832
30
0
10
-88.178864563043561
20
45.942484132635869
30
0
10
-88.040802361472174
20
45.942484132635862
30
0
10
-87.995133314445852
20
45.942484132635862
30
0
10
-87.954653442494148
20
45.926916607411897
30
0
10
-87.917812452648747
20
45.905535483556577
30
0
0
ARC
5
246
100
AcDbEntity
8
0
100
AcDbCircle
10
-96.552159459780839
20
146.59475460484768
30
0
40
1.9999999850992731
210
0
220
0
230
1
100
AcDbArc
50
247.73354323473581
51
260.00628865535845
0
LINE
5
247
100
AcDbEntity
8
0
100
AcDbLine
10
-8.2828876786787209
20
130.27901217759617
30
0
11
-10.453282657350336
21
131.29110865527099
31
0
0
LINE
5
248
100
AcDbEntity
8
0
100
AcDbLine
10
-83.960668119056891
20
43.192501257075541
30
0
11
-86.347408739391199
21
43.192501257075541
31
0
0
SPLINE
5
249
100
AcDbEntity
8
0
100
AcDbSpline
70
0
71
3
72
17
73
13
74
0
42
0.000000001
43
0.0000000001
44
0.0000000001
40
10
40
10
40
10
40
10
40
11
40
11
40
11
40
12
40
12
40
12
40
13
40
13
40
13
40
14
40
14
40
14
40
14
10
-112.42156831524389
20
158.8054597100942
30
0
10
-112.44771547526314
20
158.83910973217073
30
0
10
-112.46858869402588
20
158.87712652600331
30
0
10
-112.47473428005364
20
158.92238018473572
30
0
10
-112.49331301537195
20
159.05918662499604
30
0
10
-112.39746965756019
20
159.18515233657712
30
0
10
-112.26064188129857
20
159.20373396939002
30
0
10
-112.12383544103821
20
159.22231270470834
30
0
10
-111.99786972945715
20
159.12646934689658
30
0
10
-111.97929099413884
20
158.9896629066362
30
0
10
-111.97314540811108
20
158.94440924790376
30
0
10
-111.98312404721116
20
158.90220267689247
30
0
10
-111.99935308324498
20
158.8628195665593
30
0
0
LINE
5
250
100
AcDbEntity
8
0
100
AcDbLine
10
-114.31550094911584
20
157.33988089693116
30
0
11
-112.42156831524389
21
158.8054597100942
31
0
0
ARC
5
251
100
AcDbEntity
8
0
100
AcDbCircle
10
-4.8073241997336176
20
135.50508222503106
30
0
40
3.0000000000000178
210
-0
220
0
230
1
100
AcDbArc
50
-9.9937113446392374
51
80.006288655359981
0
SPLINE
5
252
100
AcDbEntity
8
0
100
AcDbSpline
70
0
71
3
72
14
73
10
74
0
42
0.000000001
43
0.0000000001
44
0.0000000001
40
23
40
23
40
23
40
23
40
24
40
24
40
24
40
25
40
25
40
25
40
26
40
26
40
26
40
26
10
-54.86405472266388
20
139.97276661826442
30
0
10
-54.831352271856574
20
139.94544359365116
30
0
10
-54.802882376987498
20
139.91275276601121
30
0
10
-54.787257866196754
20
139.86983963842948
30
0
10
-54.740023371529105
20
139.74010886329791
30
0
10
-54.806893058265942
20
139.59662863822135
30
0
10
-54.936623833397476
20
139.54939414355368
30
0
10
-55.066374841026715
20
139.50215228230857
30
0
10
-55.209842200183125
20
139.56904956812056
30
0
10
-55.257076694850731
20
139.69878034325208
30
0
0
SPLINE
5
253
100
AcDbEntity
8
0
100
AcDbSpline
70
0
71
3
72
14
73
10
74
0
42
0.000000001
43
0.0000000001
44
0.0000000001
40
2
40
2
40
2
40
2
40
3
40
3
40
3
40
4
40
4
40
4
40
5
40
5
40
5
40
5
10
-113.89391443256797
20
154.23564495899217
30
0
10
-113.92676866888293
20
154.15595575840402
30
0
10
-113.99636772719307
20
154.09354922519861
30
0
10
-114.08792050872101
20
154.08111607590808
30
0
10
-114.22474828498267
20
154.06253444309522
30
0
10
-114.35071689405837
20
154.15839913690826
30
0
10
-114.36929562937665
20
154.29520557716856
30
0
10
-114.38787726218953
20
154.43203335343023
30
0
10
-114.29203390437777
20
154.5579990650113
30
0
10
-114.15520612811618
20
154.57658069782417
30
0
0
LINE
5
254
100
AcDbEntity
8
0
100
AcDbLine
10
-5.9250652200707377
20
134.45755489541293
30
0
11
-5.7170470685595287
21
132.07989654371571
31
0
0
LINE
5
255
100
AcDbEntity
8
0
100
AcDbLine
10
-83.587671937238269
20
47.979461433830195
30
0
11
-82.390285937646098
21
45.905535483556569
31
0
0
LINE
5
256
100
AcDbEntity
8
0
100
AcDbLine
10
-87.917812452648747
20
45.905535483556577
30
0
11
-86.720404921209834
21
47.97946143383021
31
0
0
SPLINE
5
257
100
AcDbEntity
8
0
100
AcDbSpline
70
0
71
3
72
14
73
10
74
0
42
0.000000001
43
0.0000000001
44
0.0000000001
40
23
40
23
40
23
40
23
40
24
40
24
40
24
40
25
40
25
40
25
40
26
40
26
40
26
40
26
10
-8.7646433576511136
20
135.7855047854033
30
0
10
-8.7891559003326609
20
135.82036354634096
30
0
10
-8.8081903631054086
20
135.85931113102339
30
0
10
-8.812170682819545
20
135.90480639353797
30
0
10
-8.8242035965428993
20
136.04234322675029
30
0
10
-8.7224635247104114
20
136.16361600925254
30
0
10
-8.5849266914981417
20
136.17564892297582
30
0
10
-8.4473684083742331
20
136.18768371332325
30
0
10
-8.3261151991594318
20
136.0859203149551
30
0
10
-8.3140822854361129
20
135.94838348174281
30
0
0
SPLINE
5
258
100
AcDbEntity
8
0
100
AcDbSpline
70
0
71
3
72
14
73
10
74
0
42
0.000000001
43
0.0000000001
44
0.0000000001
40
19
40
19
40
19
40
19
40
20
40
20
40
20
40
21
40
21
40
21
40
22
40
22
40
22
40
22
10
-83.960668119056905
20
48.192497525899356
30
0
10
-83.960668119056905
20
48.330559727470721
30
0
10
-83.848745579479839
20
48.442503798894549
30
0
10
-83.710661846061669
20
48.442503798894549
30
0
10
-83.572599644490296
20
48.442503798894549
30
0
10
-83.460655573066447
20
48.330559727470714
30
0
10
-83.460655573066447
20
48.192497525899334
30
0
10
-83.460655573066461
20
48.100104371354305
30
0
10
-83.513128683676157
20
48.022740445863626
30
0
10
-83.587671937238269
20
47.979461433830195
30
0
0
SPLINE
5
259
100
AcDbEntity
8
0
100
AcDbSpline
70
0
71
3
72
13
73
9
74
0
42
0.000000001
43
0.0000000001
44
0.0000000001
40
6
40
6
40
6
40
6
40
7
40
7
40
8
40
8
40
8
40
9
40
9
40
9
40
9
10
-58.767199268416974
20
142.76289891568439
30
0
10
-58.896950276046176
20
142.71565705443928
30
0
10
-59.040417635202623
20
142.78255434025127
30
0
10
-59.134886624537899
20
143.04201589051434
30
0
10
-59.068016937801026
20
143.18549611559098
30
0
10
-58.938265930171823
20
143.23273797683606
30
0
10
-58.851448282622016
20
143.264347960713
30
0
10
-58.760820801683515
20
143.24150211009706
30
0
10
-58.694650390181067
20
143.1862640238177
30
0
0
ARC
5
260
100
AcDbEntity
8
0
100
AcDbCircle
10
-17.549360018976738
20
126.58092830540808
30
0
40
4.0000000149010857
210
-0
220
0
230
1
100
AcDbArc
50
-9.9937113446403067
51
80.006288655359612
0
SPLINE
5
261
100
AcDbEntity
8
0
100
AcDbSpline
70
0
71
3
72
13
73
9
74
0
42
0.000000001
43
0.0000000001
44
0.0000000001
40
15
40
15
40
15
40
15
40
16
40
16
40
16
40
17
40
17
40
18
40
18
40
18
40
18
10
-22.605249151350932
20
49.1880606486151
30
0
10
-22.620010984454467
20
49.272983306472923
30
0
10
-22.594475844576145
20
49.36290861401077
30
0
10
-22.523698581954687
20
49.422297788972152
30
0
10
-22.417936799636131
20
49.511042461508275
30
0
10
-22.260226403692691
20
49.497244589743048
30
0
10
-22.082737058620417
20
49.285721025105993
30
0
10
-22.096534930385651
20
49.128010629162553
30
0
10
-22.202296712704207
20
49.03926595662643
30
0
0
LINE
5
262
100
AcDbEntity
8
0
100
AcDbLine
10
-140.1065083079481
20
47.685745243119662
30
0
11
-134.23281090221073
21
40.68574525802088
31
0
0
SPLINE
5
263
100
AcDbEntity
8
0
100
AcDbSpline
70
0
71
3
72
17
73
13
74
0
42
0.000000001
43
0.0000000001
44
0.0000000001
40
10
40
10
40
10
40
10
40
11
40
11
40
11
40
12
40
12
40
12
40
13
40
13
40
13
40
14
40
14
40
14
40
14
10
-25.290040208926492
20
48.498329874427391
30
0
10
-25.330113872249036
20
48.512824682833667
30
0
10
-25.36805924857223
20
48.533827451472959
30
0
10
-25.397414746146964
20
48.568811971170049
30
0
10
-25.486159418683094
20
48.674573753488573
30
0
10
-25.472364200865094
20
48.832253814676079
30
0
10
-25.366585924194993
20
48.921012327616573
30
0
10
-25.260824141876483
20
49.009757000152696
30
0
10
-25.103144080688953
20
48.995961782334703
30
0
10
-25.014399408152805
20
48.890200000016165
30
0
10
-24.985043910578064
20
48.855215480319067
30
0
10
-24.970949366636759
20
48.814199487024901
30
0
10
-24.963647325952579
20
48.772234129979466
30
0
0
ARC
5
264
100
AcDbEntity
8
0
100
AcDbCircle
10
-20.984730280875603
20
43.699531699335317
30
0
40
3.0000000000000089
210
-0
220
0
230
1
100
AcDbArc
50
270.00628865535958
51
350.00628865535953
0
SPLINE
5
265
100
AcDbEntity
8
0
100
AcDbSpline
70
0
71
3
72
13
73
9
74
0
42
0.000000001
43
0.0000000001
44
0.0000000001
40
15
40
15
40
15
40
15
40
16
40
16
40
16
40
17
40
17
40
18
40
18
40
18
40
18
10
-109.78315820345345
20
157.95538698044015
30
0
10
-109.75030396713854
20
158.0350761810283
30
0
10
-109.68070490882837
20
158.09748271423368
30
0
10
-109.58915212730042
20
158.10991586352421
30
0
10
-109.45234568704008
20
158.12849459884251
30
0
10
-109.32635574196313
20
158.03263280252406
30
0
10
-109.28919827132653
20
157.75901992200335
30
0
10
-109.38506006764497
20
157.63302997692642
30
0
10
-109.52186650790532
20
157.61445124160809
30
0
0
LINE
5
266
100
AcDbEntity
8
0
100
AcDbLine
10
-94.615281846195174
20
154.44632164811506
30
0
11
-128.3360397605889
21
168.2531557755033
31
0
0
LINE
5
267
100
AcDbEntity
8
0
100
AcDbLine
10
-20.591567204797691
20
46.788247954468119
30
0
11
-21.410621769895087
21
44.537903158968824
31
0
0
LINE
5
268
100
AcDbEntity
8
0
100
AcDbLine
10
-5.8967422848009328
20
131.68975428276727
30
0
11
-7.8584172545482698
21
130.31617014180458
31
0
0
LINE
5
269
100
AcDbEntity
8
0
100
AcDbLine
10
-24.498348771765826
20
43.99698091717417
30
0
11
-26.032516070052267
21
45.825330306547592
31
0
0
LINE
5
270
100
AcDbEntity
8
0
100
AcDbLine
10
-24.963647325952579
20
48.772234129979466
30
0
11
-22.605249151350932
21
49.1880606486151
31
0
0
LINE
5
271
100
AcDbEntity
8
0
100
AcDbLine
10
-26.276726263460386
20
54.004358210623742
30
0
11
-13.610052779053339
21
125.88676795743667
31
0
0
ENDSEC
0
SECTION
2
OBJECTS
0
DICTIONARY
5
C
100
AcDbDictionary
3
ACAD_GROUP
350
D
3
ACAD_MLINESTYLE
350
17
0
DICTIONARY
5
D
100
AcDbDictionary
0
DICTIONARY
5
1A
330
C
100
AcDbDictionary
0
DICTIONARY
5
17
100
AcDbDictionary
0
ENDSEC
0
EOF
